<svg xmlns="http://www.w3.org/2000/svg" viewBox="0 0 150 150" width="150" height="150"><circle cx="75" cy="75" r="75" style="fill:#fff"/><path fill="#ccc" d="M150 75a75 75 0 1 0-125.66 55.25l-.07.06 2.44 2.05c.15.14.33.25.48.38 1.3 1.07 2.64 2.09 4 3.07.44.32.88.64 1.33.95q2.19 1.5 4.48 2.86l1 .58c1.68 1 3.38 1.84 5.13 2.67l.39.17a73.94 73.94 0 0 0 18.14 5.74l.5.09c2 .34 4 .62 6 .8l.74.06c2 .16 4 .27 6.11.27s4.06-.11 6.06-.27h.76q3-.28 5.94-.79l.51-.09a74 74 0 0 0 17.88-5.6l.63-.29q2.52-1.18 4.94-2.55l1.19-.69c1.47-.87 2.91-1.77 4.32-2.73.5-.34 1-.7 1.49-1.06 1.2-.87 2.38-1.76 3.52-2.69.25-.2.53-.38.77-.59l2.5-2.08-.07-.06A74.83 74.83 0 0 0 150 75ZM5.45 75a69.55 69.55 0 1 1 115.67 52 20.58 20.58 0 0 0-2.43-1.46L95.59 114a6.05 6.05 0 0 1-3.36-5.43v-8.07c.54-.66 1.1-1.41 1.69-2.23a55.61 55.61 0 0 0 7.13-14 9.89 9.89 0 0 0 5.69-9v-9.63a9.93 9.93 0 0 0-2.42-6.46V46.45a22 22 0 0 0-5.14-16C94.16 24.72 86 21.82 75 21.82s-19.16 2.9-24.18 8.64a22 22 0 0 0-5.14 16v12.72a9.93 9.93 0 0 0-2.42 6.46v9.67A9.91 9.91 0 0 0 46.92 83a51.26 51.26 0 0 0 8.43 17.43v7.89a6.08 6.08 0 0 1-3.17 5.34l-21.56 11.76a20 20 0 0 0-2.05 1.3A69.39 69.39 0 0 1 5.45 75Z"/></svg>