<svg xmlns="http://www.w3.org/2000/svg" viewBox="0 0 20 20"><path fill="#f0f0f0" d="M20 10c0 5.523-4.477 10-10 10S0 15.523 0 10 4.477 0 10 0s10 4.477 10 10z"/><path fill="#0052b4" d="M2.067 3.912a9.889 9.889 0 0 0-1.706 3.41l-.017.07h5.202zm17.588 3.479a9.95 9.95 0 0 0-1.74-3.502l.017.023-3.48 3.48zM.345 12.609a9.94 9.94 0 0 0 1.74 3.502l-.017-.023 3.48-3.48zM16.087 2.067a9.889 9.889 0 0 0-3.41-1.706l-.07-.017v5.202zM3.912 17.933a9.889 9.889 0 0 0 3.41 1.706l.07.017v-5.202zM7.391.345a9.94 9.94 0 0 0-3.502 1.74l.023-.017 3.48 3.48zm5.218 19.31a9.94 9.94 0 0 0 3.502-1.74l-.023.017-3.48-3.48v5.202zm1.844-7.046 3.479 3.48a9.889 9.889 0 0 0 1.706-3.41l.017-.07z"/><path fill="#d80027" d="M19.915 8.696h-8.611V.085a10.272 10.272 0 0 0-2.66.005l.052-.006v8.611H.085a10.272 10.272 0 0 0 .005 2.66l-.006-.052h8.611v8.611a10.272 10.272 0 0 0 2.66-.005l-.052.006v-8.611h8.611a10.272 10.272 0 0 0-.005-2.66l.006.052zm-7.304 3.913 4.46 4.462q.308-.307.588-.642l-3.82-3.82zm-5.218 0-4.464 4.462q.308.308.642.588l3.82-3.821v-1.229zm0-5.218L2.929 2.929q-.307.308-.588.642l3.821 3.821zm5.218 0 4.46-4.462q-.307-.307-.642-.588l-3.82 3.821z"/></svg>