<svg xmlns="http://www.w3.org/2000/svg" xmlns:xlink="http://www.w3.org/1999/xlink"><defs><symbol fill="none" viewBox="0 0 24 24" id="airplane"><path stroke="currentColor" stroke-linecap="round" stroke-linejoin="round" stroke-width="1.2" d="M15 9h5.5a2.5 2.5 0 0 1 2.5 2.5v0a2.5 2.5 0 0 1-2.5 2.5h-4.02a1 1 0 0 0-.78.375l-3.4 4.25a1 1 0 0 1-.78.375H9.476a1 1 0 0 1-.928-1.371l.902-2.258A1 1 0 0 0 8.523 14H4.659a1 1 0 0 1-.919-.606l-2.143-5A1 1 0 0 1 2.517 7h1.865a1 1 0 0 1 .894.553l.448.894A1 1 0 0 0 6.618 9H10m5 0-2.7-3.6a1 1 0 0 0-.8-.4H9.618a1 1 0 0 0-.894 1.447L10 9m5 0h-5" /></symbol><symbol fill="none" viewBox="0 0 24 24" id="alert-circle"><circle cx="12" cy="12" r="9" stroke="currentColor" stroke-linecap="round" stroke-linejoin="round" stroke-width="1.2" /><path stroke="currentColor" stroke-linecap="round" stroke-linejoin="round" stroke-width="1.2" d="M12 8v5m0 3v0" /></symbol><symbol fill="none" viewBox="0 0 24 24" id="analytics"><path stroke="currentColor" stroke-linecap="round" stroke-linejoin="round" stroke-width="1.2" d="M8 16v-5m4 5V8m4 8v-2m2-10H6a2 2 0 0 0-2 2v12a2 2 0 0 0 2 2h12a2 2 0 0 0 2-2V6a2 2 0 0 0-2-2z" /></symbol><symbol fill="none" viewBox="0 0 24 24" id="arrow-down"><path stroke="currentColor" stroke-linecap="round" stroke-linejoin="round" stroke-width="1.2" d="m12 19 6-6m-6 6-6-6m6 6V5" /></symbol><symbol fill="none" viewBox="0 0 24 24" id="arrow-left"><path stroke="currentColor" stroke-linecap="round" stroke-linejoin="round" stroke-width="1.2" d="m5 12 6-6m-6 6 6 6m-6-6h14" /></symbol><symbol fill="none" viewBox="0 0 24 24" id="arrow-right"><path stroke="currentColor" stroke-linecap="round" stroke-linejoin="round" stroke-width="1.2" d="m19 12-6-6m6 6-6 6m6-6H5" /></symbol><symbol fill="none" viewBox="0 0 24 24" id="arrow-up"><path stroke="currentColor" stroke-linecap="round" stroke-linejoin="round" stroke-width="1.2" d="m12 5 6 6m-6-6-6 6m6-6v14" /></symbol><symbol fill="none" viewBox="0 0 24 24" id="arrows-expand-full"><path stroke="currentColor" stroke-linecap="round" stroke-linejoin="round" stroke-width="1.2" d="M15 19h4m0 0v-4m0 4-4-4M9 5H5m0 0v4m0-4 4 4m6-4h4m0 0v4m0-4-4 4M9 19H5m0 0v-4m0 4 4-4" /></symbol><symbol fill="none" viewBox="0 0 24 24" id="article"><path stroke="currentColor" stroke-linecap="round" stroke-linejoin="round" stroke-width="1.2" d="M15 8h2m-2 4h2m0 4H7m0-8v4h4V8H7zM5 20h14a2 2 0 0 0 2-2V6a2 2 0 0 0-2-2H5a2 2 0 0 0-2 2v12a2 2 0 0 0 2 2z" /></symbol><symbol fill="none" viewBox="0 0 24 24" id="atom"><path stroke="currentColor" stroke-linecap="round" stroke-linejoin="round" stroke-width="1.2" d="M18.893 7.936a8.003 8.003 0 0 1-7.774 12.016m-6.012-3.888a8.003 8.003 0 0 1 7.774-12.016" /><circle cx="17.657" cy="6.343" r="2" stroke="currentColor" stroke-linecap="round" stroke-linejoin="round" stroke-width="1.2" transform="rotate(45 17.657 6.343)" /><circle cx="6.343" cy="17.657" r="2" stroke="currentColor" stroke-linecap="round" stroke-linejoin="round" stroke-width="1.2" transform="rotate(45 6.343 17.657)" /><circle cx="12" cy="12" r="2" stroke="currentColor" stroke-linecap="round" stroke-linejoin="round" stroke-width="1.2" transform="rotate(45 12 12)" /></symbol><symbol fill="none" viewBox="0 0 24 24" id="attachment"><path stroke="currentColor" stroke-linecap="round" stroke-linejoin="round" stroke-width="1.2" d="M10 9v5a2 2 0 0 0 2 2v0a2 2 0 0 0 2-2V7a4 4 0 0 0-4-4v0a4 4 0 0 0-4 4v8a6 6 0 0 0 6 6v0a6 6 0 0 0 6-6V5" /></symbol><symbol fill="none" viewBox="0 0 24 24" id="award"><circle cx="12" cy="9" r="7" stroke="currentColor" stroke-linecap="round" stroke-linejoin="round" stroke-width="1.2" /><path stroke="currentColor" stroke-linecap="round" stroke-linejoin="round" stroke-width="1.2" d="M7 14v6.234a1 1 0 0 0 1.514.857l2.972-1.782a1 1 0 0 1 1.028 0l2.972 1.782A1 1 0 0 0 17 20.234V14" /></symbol><symbol fill="none" viewBox="0 0 24 24" id="band-aids"><rect width="9" height="19" x="2" y="8.364" stroke="currentColor" stroke-linecap="round" stroke-linejoin="round" stroke-width="1.2" rx="4.5" transform="rotate(-45 2 8.364)" /><path stroke="currentColor" stroke-linecap="round" stroke-linejoin="round" stroke-width="1.2" d="m11.9 18.264-.354.353a4.5 4.5 0 0 1-6.364 0v0a4.5 4.5 0 0 1 0-6.364l.354-.353M11.9 5.536l.353-.354a4.5 4.5 0 0 1 6.364 0v0a4.5 4.5 0 0 1 0 6.364l-.354.354m-8.484 0h0M11.9 9.778h0m2.121 2.122h0M11.9 14.021h0" /></symbol><symbol fill="none" viewBox="0 0 24 24" id="barcode"><path stroke="currentColor" stroke-linecap="round" stroke-linejoin="round" stroke-width="1.2" d="M7 6v12m7-12v12m7-12v12M10 6.5v11a.5.5 0 0 0 1 0v-11a.5.5 0 0 0-1 0zm7 0v11a.5.5 0 0 0 1 0v-11a.5.5 0 0 0-1 0zM3.5 6v0a.5.5 0 0 0-.5.5v11a.5.5 0 0 0 .5.5v0a.5.5 0 0 0 .5-.5v-11a.5.5 0 0 0-.5-.5z" /></symbol><symbol fill="none" viewBox="0 0 24 24" id="basket"><path stroke="currentColor" stroke-linecap="round" stroke-linejoin="round" stroke-width="1.2" d="M3 10h1m17 0h-1m0 0-1 10H5L4 10m16 0h-4M4 10h4m4 4v2m3-2v2m-6-2v2m-1-6h8m-8 0V8c0-1.333.8-4 4-4s4 2.667 4 4v2" /></symbol><symbol fill="none" viewBox="0 0 24 24" id="battery-full"><path stroke="currentColor" stroke-linecap="round" stroke-linejoin="round" stroke-width="1.2" d="M7 10v4m4 0v-4m4 0v4m4-4V8a2 2 0 0 0-2-2H5a2 2 0 0 0-2 2v8a2 2 0 0 0 2 2h12a2 2 0 0 0 2-2v-2m0-4v0a2 2 0 0 1 2 2v0a2 2 0 0 1-2 2v0m0-4v4" /></symbol><symbol fill="none" viewBox="0 0 24 24" id="beach"><path stroke="currentColor" stroke-linecap="round" stroke-linejoin="round" stroke-width="1.2" d="M17.696 3.866C15.098 2.366 11.5 2.598 10 5.196l3.464 2m4.232-3.33c2.598 1.5 4.196 4.732 2.696 7.33l-5.196-3m2.5-4.33.5-.866m-.5.866c-1.821.488-2.982 1.165-4.232 3.33m4.232-3.33c.488 1.821.482 3.165-.768 5.33m-1.732-1-1.732-1m1.732 1-3 5.196M3 21l.88-1.056a2.001 2.001 0 0 1 3.139.08v0a2.001 2.001 0 0 0 3.107.118l.19-.218a2.236 2.236 0 0 1 3.367 0l.191.218c.838.957 2.344.9 3.107-.117v0a2.001 2.001 0 0 1 3.14-.08L21 21M6.708 16A7.97 7.97 0 0 1 12 14a7.97 7.97 0 0 1 5.292 2" /></symbol><symbol fill="none" viewBox="0 0 24 24" id="bell"><path stroke="currentColor" stroke-linecap="round" stroke-linejoin="round" stroke-width="1.2" d="M12 5c-2 0-6 1.2-6 6v4l-2 2h5m3-12c4.8 0 6 4 6 6v4l2 2h-5M12 5V3M9 17v1c0 1 .6 3 3 3s3-2 3-3v-1m-6 0h6" /></symbol><symbol fill="none" viewBox="0 0 24 24" id="book"><path stroke="currentColor" stroke-linecap="round" stroke-linejoin="round" stroke-width="1.2" d="M8 3H6a2 2 0 0 0-2 2v14a2 2 0 0 0 2 2h12a2 2 0 0 0 2-2V5a2 2 0 0 0-2-2h-4M8 3v9l3-3 3 3V3M8 3h6" /></symbol><symbol fill="none" viewBox="0 0 24 24" id="book-open"><path stroke="currentColor" stroke-linecap="round" stroke-linejoin="round" stroke-width="1.2" d="M12 6.603c1.667-1.271 5.5-2.86 9 0V19c-3.5-2.86-7.333-1.271-9 0m0-12.397c-1.667-1.271-5.5-2.86-9 0V19c3.5-2.86 7.333-1.271 9 0m0-12.397V19" /></symbol><symbol fill="none" viewBox="0 0 24 24" id="bookmark"><path stroke="currentColor" stroke-linecap="round" stroke-linejoin="round" stroke-width="1.2" d="M17 3H7a2 2 0 0 0-2 2v15.138a.5.5 0 0 0 .748.434l5.26-3.005a2 2 0 0 1 1.984 0l5.26 3.006a.5.5 0 0 0 .748-.435V5a2 2 0 0 0-2-2z" /></symbol><symbol fill="none" viewBox="0 0 24 24" id="box"><path stroke="currentColor" stroke-linecap="round" stroke-linejoin="round" stroke-width="1.2" d="m4 8 8-5 4 2.5M4 8v8l8 5M4 8l4 2.5m4 2.5 8-5m-8 5v8m0-8-4-2.5M20 8v8l-8 5m8-13-4-2.5m-8 5 8-5" /></symbol><symbol fill="none" viewBox="0 0 24 24" id="briefcase"><path stroke="currentColor" stroke-linecap="round" stroke-linejoin="round" stroke-width="1.2" d="M15 8V6a2 2 0 0 0-2-2h-2a2 2 0 0 0-2 2v2m6 0h4a2 2 0 0 1 2 2v3m-6-5H9m0 0H5a2 2 0 0 0-2 2v3m0 0v5a2 2 0 0 0 2 2h14a2 2 0 0 0 2-2v-5M3 13h7m11 0h-7m0 0v-2h-4v2m4 0v2h-4v-2" /></symbol><symbol fill="none" viewBox="0 0 24 24" id="browser"><path stroke="currentColor" stroke-linecap="round" stroke-linejoin="round" stroke-width="1.2" d="M3 8V6a2 2 0 0 1 2-2h14a2 2 0 0 1 2 2v2M3 8v10a2 2 0 0 0 2 2h14a2 2 0 0 0 2-2V8M3 8h18" /></symbol><symbol fill="none" viewBox="0 0 24 24" id="burger"><path stroke="currentColor" stroke-linecap="round" stroke-linejoin="round" stroke-width="1.2" d="m15 15 3.379-3.379a2.121 2.121 0 0 1 1.5-.621H20a2 2 0 0 1 2 2v0a2 2 0 0 1-2 2H4a2 2 0 0 1-2-2v0a2 2 0 0 1 2-2h4.515a6 6 0 0 1 4.242 1.757L15 15zM3 15h18v2a3 3 0 0 1-3 3H6a3 3 0 0 1-3-3v-2z" /><path stroke="currentColor" stroke-linecap="round" stroke-linejoin="round" stroke-width="1.2" d="M12 4c-4.623 0-8.432 1.756-8.942 6-.066.55.39 1 .942 1h16c.552 0 1.008-.45.942-1-.51-4.244-4.319-6-8.942-6zM7.001 8H7m8.001-1H15m-2.999 1H12" /></symbol><symbol fill="none" viewBox="0 0 24 24" id="bus"><path stroke="currentColor" stroke-linecap="round" stroke-linejoin="round" stroke-width="1.2" d="M6 19v0a2 2 0 0 1-2-2v-4m2 6v1.5a.5.5 0 0 0 .5.5v0a.5.5 0 0 0 .5-.5V19m-1 0h1m11 0v0a2 2 0 0 0 2-2v-4m-2 6v1.5a.5.5 0 0 1-.5.5v0a.5.5 0 0 1-.5-.5V19m1 0h-1M4 13V7m0 6h8m8 0V7m0 6h-8m-5 6h10M4 7v0a4 4 0 0 1 4-4h8a4 4 0 0 1 4 4v0M4 7h8m8 0h-8m0 0v6m-4 3h.001M16 16h.001" /></symbol><symbol fill="none" viewBox="0 0 24 24" id="cake"><path stroke="currentColor" stroke-linecap="round" stroke-linejoin="round" stroke-width="1.2" d="M7 9v0a4 4 0 0 0-4 4v6a2 2 0 0 0 2 2h14a2 2 0 0 0 2-2v-6a4 4 0 0 0-4-4v0M7 9h10M7 9V6m10 3V6m-5 0v3m0-6h.01M7 3h.01M17 3h.01" /><path stroke="currentColor" stroke-linecap="round" stroke-linejoin="round" stroke-width="1.2" d="M3 13c0 1 .6 3 3 3s3-2 3-3c0 1 .6 3 3 3s3-2 3-3c0 1 .6 3 3 3s3-2 3-3" /></symbol><symbol fill="none" viewBox="0 0 24 24" id="calendar"><path stroke="currentColor" stroke-linecap="round" stroke-linejoin="round" stroke-width="1.2" d="M4 9v10a2 2 0 0 0 2 2h12a2 2 0 0 0 2-2V9M4 9V7a2 2 0 0 1 2-2h2M4 9h16m0 0V7a2 2 0 0 0-2-2h-2m0 0V3m0 2H8m0-2v2" /></symbol><symbol fill="none" viewBox="0 0 24 24" id="camera"><path stroke="currentColor" stroke-linecap="round" stroke-linejoin="round" stroke-width="1.2" d="M3 18V9a2 2 0 0 1 2-2h.93a2 2 0 0 0 1.664-.89l.812-1.22A2 2 0 0 1 10.07 4h3.86a2 2 0 0 1 1.664.89l.812 1.22A2 2 0 0 0 18.07 7H19a2 2 0 0 1 2 2v9a2 2 0 0 1-2 2H5a2 2 0 0 1-2-2z" /><circle cx="12" cy="13" r="3" stroke="currentColor" stroke-linecap="round" stroke-linejoin="round" stroke-width="1.2" /></symbol><symbol fill="none" viewBox="0 0 24 24" id="car"><path stroke="currentColor" stroke-linecap="round" stroke-linejoin="round" stroke-width="1.2" d="m3 11 2.48-5.788A2 2 0 0 1 7.32 4h9.362a2 2 0 0 1 1.838 1.212L21 11M3 11h18M3 11v7m18-7v7m-3 0v.5a1.5 1.5 0 0 0 1.5 1.5v0a1.5 1.5 0 0 0 1.5-1.5V18m-3 0H6m12 0h3M6 18v.5A1.5 1.5 0 0 1 4.5 20v0A1.5 1.5 0 0 1 3 18.5V18m3 0H3m4-4h.001M17 14h.001" /></symbol><symbol fill="none" viewBox="0 0 24 24" id="chat"><path stroke="currentColor" stroke-linecap="round" stroke-linejoin="round" stroke-width="1.2" d="M12 21a9 9 0 1 0-7.605-4.185L3 21l4.185-1.395A8.958 8.958 0 0 0 12 21z" /></symbol><symbol fill="none" viewBox="0 0 24 24" id="chat-signal"><path stroke="currentColor" stroke-linecap="round" stroke-linejoin="round" stroke-width="1.2" d="M10 3.223a9.003 9.003 0 0 0-5.605 13.592L3 21l4.185-1.395A9.003 9.003 0 0 0 20.777 14m0-4A9.013 9.013 0 0 0 14 3.223M17 12a5 5 0 0 0-5-5m1 5a1 1 0 0 0-1-1" /></symbol><symbol fill="none" viewBox="0 0 24 24" id="chat-status"><path stroke="currentColor" stroke-linecap="round" stroke-linejoin="round" stroke-width="1.2" d="M15 3.512a9.025 9.025 0 0 1 5.5 5.523M11 3.055a9.001 9.001 0 0 0-6.605 13.76L3 21l4.185-1.395A9.001 9.001 0 0 0 20.945 13" /><path stroke="currentColor" stroke-linecap="round" stroke-linejoin="round" stroke-width="1.2" d="M12 17a5 5 0 0 1-5-5m2-4a5 5 0 0 1 7 7" /><circle cx="12" cy="12" r="1" stroke="currentColor" stroke-linecap="round" stroke-linejoin="round" stroke-width="1.2" /></symbol><symbol fill="none" viewBox="0 0 24 24" id="chat-text"><path stroke="currentColor" stroke-linecap="round" stroke-linejoin="round" stroke-width="1.2" d="M8 9h8m-8 3h8m-8 3h3m10-3a9 9 0 0 1-13.815 7.605L3 21l1.395-4.185A9 9 0 1 1 21 12z" /></symbol><symbol fill="none" viewBox="0 0 24 24" id="chats"><path stroke="currentColor" stroke-linecap="round" stroke-linejoin="round" stroke-width="1.2" d="M13.584 7a5.001 5.001 0 1 0-8.809 4.675L4 14l2.325-.775c.214.136.44.256.675.359M15 20a5 5 0 1 1 4.225-2.325L20 20l-2.325-.775A4.976 4.976 0 0 1 15 20z" /></symbol><symbol fill="none" viewBox="0 0 24 24" id="chats-2"><path stroke="currentColor" stroke-linecap="round" stroke-linejoin="round" stroke-width="1.2" d="M8 18.72C6.339 20.134 4.82 21 2 21c1-1 2.27-2.35 2.801-4.447C3.067 15.114 2 13.157 2 11c0-4.418 4.477-8 10-8 5.1 0 9.308 3.054 9.923 7" /><path stroke="currentColor" stroke-linecap="round" stroke-linejoin="round" stroke-width="1.2" d="M16 19.889c-3.314 0-6-1.99-6-4.445C10 12.99 12.686 11 16 11s6 1.99 6 4.444c0 1.199-.64 2.286-1.68 3.085.317 1.165 1.08 1.915 1.68 2.471-1.8 0-2.716-.544-3.792-1.422-.684.2-1.428.31-2.208.31z" /></symbol><symbol viewBox="0 0 24 24" id="check"><path fill="none" stroke="currentColor" stroke-linecap="round" stroke-linejoin="round" stroke-width="1.2" d="m5 12 5 5L20 7" /></symbol><symbol viewBox="0 0 24 24" id="check-circle"><g fill="none" stroke="currentColor" stroke-linecap="round" stroke-linejoin="round" stroke-width="1.2"><path d="M3 12a9 9 0 1 0 18 0 9 9 0 1 0-18 0" /><path d="m9 12 2 2 4-4" /></g></symbol><symbol viewBox="0 0 24 24" id="checks"><path fill="none" stroke="currentColor" stroke-linecap="round" stroke-linejoin="round" stroke-width="1.2" d="m7 12 5 5L22 7M2 12l5 5m5-5 5-5" /></symbol><symbol fill="none" viewBox="0 0 24 24" id="chevron-down"><path stroke="currentColor" stroke-linecap="round" stroke-linejoin="round" stroke-width="1.2" d="m17 10-5 5-5-5" /></symbol><symbol fill="none" viewBox="0 0 24 24" id="chevron-left"><path stroke="currentColor" stroke-linecap="round" stroke-linejoin="round" stroke-width="1.2" d="m14 7-5 5 5 5" /></symbol><symbol fill="none" viewBox="0 0 24 24" id="chevron-right"><path stroke="currentColor" stroke-linecap="round" stroke-linejoin="round" stroke-width="1.2" d="m10 7 5 5-5 5" /></symbol><symbol fill="none" viewBox="0 0 24 24" id="chevron-up"><path stroke="currentColor" stroke-linecap="round" stroke-linejoin="round" stroke-width="1.2" d="m17 14-5-5-5 5" /></symbol><symbol fill="none" viewBox="0 0 24 24" id="chromecast"><path stroke="currentColor" stroke-linecap="round" stroke-linejoin="round" stroke-width="1.2" d="M3 20h.01M7 20a4 4 0 0 0-4-4m8 4a8 8 0 0 0-8-8" /><path stroke="currentColor" stroke-linecap="round" stroke-linejoin="round" stroke-width="1.2" d="M3 8.5V6a2 2 0 0 1 2-2h14a2 2 0 0 1 2 2v12a2 2 0 0 1-2 2h-4" /></symbol><symbol fill="none" viewBox="0 0 24 24" id="clipboard"><path stroke="currentColor" stroke-linecap="round" stroke-linejoin="round" stroke-width="1.2" d="M8 5H6a2 2 0 0 0-2 2v12a2 2 0 0 0 2 2h12a2 2 0 0 0 2-2V7a2 2 0 0 0-2-2h-2M8 5v0a2 2 0 0 1 2-2h4a2 2 0 0 1 2 2v0M8 5v0a2 2 0 0 0 2 2h4a2 2 0 0 0 2-2v0" /></symbol><symbol fill="none" viewBox="0 0 24 24" id="clock"><circle cx="12" cy="12" r="9" stroke="currentColor" stroke-linecap="round" stroke-linejoin="round" stroke-width="1.2" /><path stroke="currentColor" stroke-linecap="round" stroke-linejoin="round" stroke-width="1.2" d="M12 7v3.764a2 2 0 0 0 1.106 1.789L16 14" /></symbol><symbol fill="none" viewBox="0 0 24 24" id="close"><path stroke="currentColor" stroke-linecap="round" stroke-linejoin="round" stroke-width="1.2" d="M12 12 7 7m5 5 5 5m-5-5 5-5m-5 5-5 5" /></symbol><symbol viewBox="0 0 24 24" id="close-circle"><path fill="none" stroke="currentColor" stroke-linecap="round" stroke-linejoin="round" stroke-width="1.2" d="M12 21a9 9 0 0 0 9-9 9 9 0 0 0-9-9 9 9 0 0 0-9 9 9 9 0 0 0 9 9zM8.5 8.5l7 7m-7 0 7-7" /></symbol><symbol fill="none" viewBox="0 0 24 24" id="cloud"><path stroke="currentColor" stroke-linecap="round" stroke-linejoin="round" stroke-width="1.2" d="M2 13.5C2 17.9 5.667 19 7.5 19h10c1.5 0 4.5-.9 4.5-4.5S19 10 17.5 10c0-1.5-1.5-5-5-5-2.8 0-4.5 2-5 3C5.667 8 2 9.1 2 13.5z" /></symbol><symbol fill="none" viewBox="0 0 24 24" id="code-block"><path stroke="currentColor" stroke-linecap="round" stroke-linejoin="round" stroke-width="1.2" d="M7 8h5m3 0h2m0 4h-6m-3 0H7m0 4h5m3 0h2M3 8V6a2 2 0 0 1 2-2h14a2 2 0 0 1 2 2v12a2 2 0 0 1-2 2H5a2 2 0 0 1-2-2V8z" /></symbol><symbol fill="none" viewBox="0 0 24 24" id="coins"><path stroke="currentColor" stroke-linecap="round" stroke-linejoin="round" stroke-width="1.2" d="M21 8c0-1.657-3.134-3-7-3S7 6.343 7 8m14 0v4c0 1.02-1.186 1.92-3 2.462-1.134.34-2.513.538-4 .538s-2.866-.199-4-.538C8.187 13.92 7 13.02 7 12V8m14 0c0 1.02-1.186 1.92-3 2.462-1.134.34-2.513.538-4 .538s-2.866-.199-4-.538C8.187 9.92 7 9.02 7 8" /><path stroke="currentColor" stroke-linecap="round" stroke-linejoin="round" stroke-width="1.2" d="M3 12v4c0 1.02 1.187 1.92 3 2.462 1.134.34 2.513.538 4 .538s2.866-.199 4-.538c1.813-.542 3-1.442 3-2.462v-1M3 12c0-1.197 1.635-2.23 4-2.711M3 12c0 1.02 1.187 1.92 3 2.462 1.134.34 2.513.538 4 .538.695 0 1.366-.043 2-.124" /></symbol><symbol fill="none" viewBox="0 0 24 24" id="comet"><path stroke="currentColor" stroke-linecap="round" stroke-linejoin="round" stroke-width="1.2" d="m9.879 5.636.707-.707a6 6 0 0 1 8.485 8.485l-2.121 2.122M7.757 7.757 5.636 9.88M3.515 12l-.707.707m12.02 4.95-1.414 1.414m-.707-4.95-.707.707M9.879 16.95l-2.122 2.12m2.122-7.778-6.364 6.364" /><circle cx="14.828" cy="9.172" r="2" stroke="currentColor" stroke-linecap="round" stroke-linejoin="round" stroke-width="1.2" transform="rotate(45 14.828 9.172)" /></symbol><symbol fill="none" viewBox="0 0 24 24" id="comment"><path stroke="currentColor" stroke-linecap="round" stroke-linejoin="round" stroke-width="1.2" d="M19 4H5a2 2 0 0 0-2 2v15l3.467-2.6a2 2 0 0 1 1.2-.4H19a2 2 0 0 0 2-2V6a2 2 0 0 0-2-2z" /></symbol><symbol fill="none" viewBox="0 0 24 24" id="comment-text"><path stroke="currentColor" stroke-linecap="round" stroke-linejoin="round" stroke-width="1.2" d="M7 8h10M7 11h10M7 14h4m-8 4V6a2 2 0 0 1 2-2h14a2 2 0 0 1 2 2v10a2 2 0 0 1-2 2H7.667a2 2 0 0 0-1.2.4L3 21v-3z" /></symbol><symbol fill="none" viewBox="0 0 24 24" id="comments"><path stroke="currentColor" stroke-linecap="round" stroke-linejoin="round" stroke-width="1.2" d="M7 12h-.394a2 2 0 0 0-1.11.336L3 14V5a2 2 0 0 1 2-2h7a2 2 0 0 1 2 2v2m-2 3h7a2 2 0 0 1 2 2v9l-2.496-1.664a2 2 0 0 0-1.11-.336H12a2 2 0 0 1-2-2v-5a2 2 0 0 1 2-2z" /></symbol><symbol fill="none" viewBox="0 0 24 24" id="community"><path stroke="currentColor" stroke-linecap="round" stroke-linejoin="round" stroke-width="1.2" d="M7 9V6a2 2 0 0 1 2-2h10a2 2 0 0 1 2 2v12a2 2 0 0 1-2 2h-6m0 0v-6.172a2 2 0 0 0-.586-1.414l-3-3a2 2 0 0 0-2.828 0l-3 3A2 2 0 0 0 3 13.828V18a2 2 0 0 0 2 2h3m5 0H8m0-4v4m9.001-12H17m-3.999 0H13m4.001 4H17m.001 4H17" /></symbol><symbol fill="none" viewBox="0 0 24 24" id="compass"><circle cx="12" cy="12" r="9" stroke="currentColor" stroke-linecap="round" stroke-linejoin="round" stroke-width="1.2" /><path stroke="currentColor" stroke-linecap="round" stroke-linejoin="round" stroke-width="1.2" d="m9.879 9.879 6.364-2.122-2.122 6.364-6.364 2.122L9.88 9.879z" /></symbol><symbol fill="none" viewBox="0 0 24 24" id="cookie"><path stroke="currentColor" stroke-linecap="round" stroke-linejoin="round" stroke-width="1.2" d="M4.419 12c0-6.4 5.358-8 8.037-8h1.005v4h3.014v3h4.019v1c0 6.4-5.024 8-8.038 8-3.014 0-8.037-1.6-8.037-8zm5.023-4h.001m-2.01 4h0m5.023 1h.001m-2.01 3h0m6.028-1h0" /></symbol><symbol fill="none" viewBox="0 0 24 24" id="cpu"><path stroke="currentColor" stroke-linecap="round" stroke-linejoin="round" stroke-width="1.2" d="M9 5H7a2 2 0 0 0-2 2v2m4-4V3m0 2h6m0 0h2a2 2 0 0 1 2 2v10a2 2 0 0 1-2 2H7a2 2 0 0 1-2-2v-2M15 5V3M9 21v-2m6 2v-2M5 15H3m2 0V9m0 0H3m18 6h-2m2-6h-2m-6 1h-2a1 1 0 0 0-1 1v2a1 1 0 0 0 1 1h2a1 1 0 0 0 1-1v-2a1 1 0 0 0-1-1z" /></symbol><symbol fill="none" viewBox="0 0 24 24" id="creditcard"><path stroke="currentColor" stroke-linecap="round" stroke-linejoin="round" stroke-width="1.2" d="M3 9v8a2 2 0 0 0 2 2h14a2 2 0 0 0 2-2V9M3 9V7a2 2 0 0 1 2-2h14a2 2 0 0 1 2 2v2M3 9h18M7 13h5" /></symbol><symbol fill="none" viewBox="0 0 24 24" id="cup"><path stroke="currentColor" stroke-linecap="round" stroke-linejoin="round" stroke-width="1.2" d="M16 5H4v7a4 4 0 0 0 4 4h4a4 4 0 0 0 4-4v-1m0-6v6m0-6h2a2 2 0 0 1 2 2v2a2 2 0 0 1-2 2h-2M4 19h14" /></symbol><symbol fill="none" viewBox="0 0 24 24" id="data"><path stroke="currentColor" stroke-linecap="round" stroke-linejoin="round" stroke-width="1.2" d="M21 7c0 2.21-4.03 4-9 4S3 9.21 3 7m18 0c0-2.21-4.03-4-9-4S3 4.79 3 7m18 0v5M3 7v5m18 0c0 2.21-4.03 4-9 4s-9-1.79-9-4m18 0v5c0 2.21-4.03 4-9 4s-9-1.79-9-4v-5" /></symbol><symbol fill="none" viewBox="0 0 24 24" id="document"><path stroke="currentColor" stroke-linecap="round" stroke-linejoin="round" stroke-width="1.2" d="M19 20H5c-1.6 0-2-1.333-2-2V6a2 2 0 0 1 2-2h10a2 2 0 0 1 2 2v6m2 8c-.667 0-2-.4-2-2v-6m2 8c1.6 0 2-1.333 2-2v-6h-4" /></symbol><symbol fill="none" viewBox="0 0 24 24" id="document-award"><path stroke="currentColor" stroke-linecap="round" stroke-linejoin="round" stroke-width="1.2" d="M19 20H5c-1.6 0-2-1.333-2-2V6a2 2 0 0 1 2-2h10a2 2 0 0 1 2 2v6m2 8c-.667 0-2-.4-2-2v-6m2 8c1.6 0 2-1.333 2-2v-6h-4" /><path stroke="currentColor" stroke-linecap="round" stroke-linejoin="round" stroke-width="1.2" d="M7 16h6m-1-6a2 2 0 1 1-4 0 2 2 0 0 1 4 0z" /></symbol><symbol fill="none" viewBox="0 0 24 24" id="earth-sphere"><path stroke="currentColor" stroke-linecap="round" stroke-linejoin="round" stroke-width="1.2" d="M22 12a9.966 9.966 0 0 1-.832 4M12 22a9.966 9.966 0 0 0 7.071-2.929M2 12a9.966 9.966 0 0 1 2.929-7.071M12 2a9.966 9.966 0 0 0-4 .832m0 18.336A10.02 10.02 0 0 1 2.832 16m13-13A10.02 10.02 0 0 1 21 8.168M9 6.803A5.998 5.998 0 0 0 6 12c0 2.22 1.207 4.16 3 5.197M9 6.803A6.003 6.003 0 0 1 17.659 10M9 6.803l1.603 1.708a1.83 1.83 0 0 1-.236 2.714l-.59.442a1.373 1.373 0 0 0 .21 2.327v0c.92.46 1.027 1.729.198 2.336L9 17.197m0 0c.883.51 1.907.803 3 .803 1.792 0 3.4-.786 4.5-2.031M17.659 10A5.99 5.99 0 0 1 18 12a5.977 5.977 0 0 1-1.5 3.969M17.659 10l-1.101.349a2 2 0 0 0-1.252 2.653L16.5 15.97" /></symbol><symbol fill="none" viewBox="0 0 24 24" id="edit-pen"><path stroke="currentColor" stroke-linecap="round" stroke-linejoin="round" stroke-width="1.2" d="m14 6 2.293-2.293a1 1 0 0 1 1.414 0l2.586 2.586a1 1 0 0 1 0 1.414L18 10m-4-4-9.707 9.707a1 1 0 0 0-.293.707V19a1 1 0 0 0 1 1h2.586a1 1 0 0 0 .707-.293L18 10m-4-4 4 4" /></symbol><symbol fill="none" viewBox="0 0 24 24" id="eraser"><g clip-path="url(#eraser_a)"><path stroke="currentColor" stroke-linecap="round" stroke-linejoin="round" stroke-width="1.2" d="m11.607 6.535-7.779 7.779a2 2 0 0 0 0 2.828l1.536 1.536a2 2 0 0 0 1.414.585h6.243M11.607 6.535l2.12-2.12a2 2 0 0 1 2.83 0l4.242 4.242a2 2 0 0 1 0 2.828l-2.121 2.122m-7.071-7.072 7.07 7.072m0 0-5.656 5.656m0 0H20" /></g><defs></defs></symbol><clipPath id="eraser_a"><path fill="#fff" d="M0 0h24v24H0z" /></clipPath><symbol fill="none" viewBox="0 0 24 24" id="file"><path stroke="currentColor" stroke-linecap="round" stroke-linejoin="round" stroke-width="1.2" d="M20 9v10a2 2 0 0 1-2 2H6a2 2 0 0 1-2-2V5a2 2 0 0 1 2-2h8m6 6v-.172a2 2 0 0 0-.586-1.414l-3.828-3.828A2 2 0 0 0 14.172 3H14m6 6h-4a2 2 0 0 1-2-2V3" /></symbol><symbol fill="none" viewBox="0 0 24 24" id="file-plus"><path stroke="currentColor" stroke-linecap="round" stroke-linejoin="round" stroke-width="1.2" d="M19 16v3m0 0v3m0-3h3m-3 0h-3m4-10v-.172a2 2 0 0 0-.586-1.414l-3.828-3.828A2 2 0 0 0 14.172 3H14m6 6h-4a2 2 0 0 1-2-2V3m6 6v3m-6-9H6a2 2 0 0 0-2 2v14a2 2 0 0 0 2 2h6" /></symbol><symbol fill="none" viewBox="0 0 24 24" id="filter"><path stroke="currentColor" stroke-width="1.2" d="M18 4H6c-1.105 0-2.026.91-1.753 1.98a8.018 8.018 0 0 0 4.298 5.238c.823.394 1.455 1.168 1.455 2.08v6.084a1 1 0 0 0 1.447.894l2-1a1 1 0 0 0 .553-.894v-5.084c0-.912.632-1.686 1.454-2.08a8.017 8.017 0 0 0 4.3-5.238C20.025 4.91 19.103 4 18 4z" /></symbol><symbol fill="none" viewBox="0 0 24 24" id="flag"><path stroke="currentColor" stroke-linecap="round" stroke-linejoin="round" stroke-width="1.2" d="M5 20v-6m0-9h14v9H5m0-9v9m0-9V4" /></symbol><symbol fill="none" viewBox="0 0 24 24" id="folder"><path stroke="currentColor" stroke-linecap="round" stroke-linejoin="round" stroke-width="1.2" d="M3 6a2 2 0 0 1 2-2h3.93a2 2 0 0 1 1.664.89l.812 1.22A2 2 0 0 0 13.07 7H19a2 2 0 0 1 2 2v9a2 2 0 0 1-2 2H5a2 2 0 0 1-2-2V6z" /></symbol><symbol fill="none" viewBox="0 0 24 24" id="folder-check"><path stroke="currentColor" stroke-linecap="round" stroke-linejoin="round" stroke-width="1.2" d="M21 11.5V9a2 2 0 0 0-2-2h-5.93a2 2 0 0 1-1.664-.89l-.812-1.22A2 2 0 0 0 8.93 4H5a2 2 0 0 0-2 2v12a2 2 0 0 0 2 2h7m4-1 2 2 4-5" /></symbol><symbol fill="none" viewBox="0 0 24 24" id="folder-plus"><path stroke="currentColor" stroke-linecap="round" stroke-linejoin="round" stroke-width="1.2" d="M21 13V9a2 2 0 0 0-2-2h-5.93a2 2 0 0 1-1.664-.89l-.812-1.22A2 2 0 0 0 8.93 4H5a2 2 0 0 0-2 2v12a2 2 0 0 0 2 2h7m6-5v3m0 3v-3m0 0h-3m3 0h3" /></symbol><symbol fill="none" viewBox="0 0 24 24" id="git-branch"><path stroke="currentColor" stroke-linecap="round" stroke-linejoin="round" stroke-width="1.2" d="M7 21v-6m0-6v6m0 0h8a2 2 0 0 0 2-2v-2" /><circle cx="7" cy="6" r="3" stroke="currentColor" stroke-linecap="round" stroke-linejoin="round" stroke-width="1.2" /><circle cx="17" cy="8" r="3" stroke="currentColor" stroke-linecap="round" stroke-linejoin="round" stroke-width="1.2" /></symbol><symbol fill="none" viewBox="0 0 24 24" id="git-commit"><path stroke="currentColor" stroke-linecap="round" stroke-linejoin="round" stroke-width="1.2" d="M12 16a4 4 0 0 1 0-8m0 8a4 4 0 0 0 0-8m0 8v5m0-13V3" /></symbol><symbol fill="none" viewBox="0 0 24 24" id="git-fork"><circle cx="6" cy="6" r="3" stroke="currentColor" stroke-linecap="round" stroke-linejoin="round" stroke-width="1.2" /><circle cx="18" cy="6" r="3" stroke="currentColor" stroke-linecap="round" stroke-linejoin="round" stroke-width="1.2" /><circle cx="12" cy="18" r="3" stroke="currentColor" stroke-linecap="round" stroke-linejoin="round" stroke-width="1.2" /><path stroke="currentColor" stroke-width="1.2" d="M6 9v1a2 2 0 0 0 2 2h4m6-3v1a2 2 0 0 1-2 2h-4m0 0v3" /></symbol><symbol fill="none" viewBox="0 0 24 24" id="globe-grid"><path stroke="currentColor" stroke-linecap="round" stroke-linejoin="round" stroke-width="1.2" d="M20.5 9.035a9.004 9.004 0 0 0-17 0m17 0c.324.928.5 1.926.5 2.965a8.988 8.988 0 0 1-.5 2.966m0-5.931h-17m0 0A8.987 8.987 0 0 0 3 12a8.99 8.99 0 0 0 .5 2.966m0 0a9.004 9.004 0 0 0 17 0m-17 0h17" /><path stroke="currentColor" stroke-linecap="round" stroke-linejoin="round" stroke-width="1.2" d="M12 21c4.97-4.97 4.97-13.03 0-18-4.97 4.97-4.97 13.03 0 18z" /></symbol><symbol fill="none" viewBox="0 0 24 24" id="hand-pointer-2"><path stroke="currentColor" stroke-linecap="round" stroke-width="1.2" d="M13 10V8.5A1.5 1.5 0 0 0 11.5 7v0A1.5 1.5 0 0 0 10 8.5V11m3 0V9.5A1.5 1.5 0 0 1 14.5 8v0A1.5 1.5 0 0 1 16 9.5v.5m-9 1.5v-7A1.5 1.5 0 0 1 8.5 3v0A1.5 1.5 0 0 1 10 4.5V11m0 1v-1m-3 3v-2.5A1.5 1.5 0 0 0 5.5 10v0A1.5 1.5 0 0 0 4 11.5v2C4 16 5.5 21 11.5 21c2.5 0 7.5-1.5 7.5-7.5V12a2 2 0 0 0-2-2h-1m0 0v2" /></symbol><symbol fill="none" viewBox="0 0 24 24" id="hard-drive"><path stroke="currentColor" stroke-linecap="round" stroke-linejoin="round" stroke-width="1.2" d="M5 15h14M5 15v4a2 2 0 0 0 2 2h10a2 2 0 0 0 2-2v-4M5 15V5a2 2 0 0 1 2-2h10a2 2 0 0 1 2 2v10m-6 3h3" /></symbol><symbol fill="none" viewBox="0 0 24 24" id="headset"><path stroke="currentColor" stroke-linecap="round" stroke-linejoin="round" stroke-width="1.2" d="M4 14v4a2 2 0 0 0 2 2h1a2 2 0 0 0 2-2v-2a2 2 0 0 0-2-2H4zm0 0v-3c0-2.333 2.4-7 8-7s8 4.667 8 7v3m0 0v4a2 2 0 0 1-2 2h-1a2 2 0 0 1-2-2v-2a2 2 0 0 1 2-2h3z" /></symbol><symbol fill="none" viewBox="0 0 24 24" id="heart"><path stroke="currentColor" stroke-linecap="round" stroke-linejoin="round" stroke-width="1.2" d="M17 4c-3.2 0-5 2.667-5 4 0-1.333-1.8-4-5-4S3 6.667 3 8c0 7 9 12 9 12s9-5 9-12c0-1.333-.8-4-4-4z" /></symbol><symbol fill="none" viewBox="0 0 24 24" id="home"><path stroke="currentColor" stroke-linecap="round" stroke-linejoin="round" stroke-width="1.2" d="M20 19v-8.5a1 1 0 0 0-.4-.8l-7-5.25a1 1 0 0 0-1.2 0l-7 5.25a1 1 0 0 0-.4.8V19a1 1 0 0 0 1 1h4a1 1 0 0 0 1-1v-3a1 1 0 0 1 1-1h2a1 1 0 0 1 1 1v3a1 1 0 0 0 1 1h4a1 1 0 0 0 1-1z" /></symbol><symbol fill="none" viewBox="0 0 24 24" id="image"><path stroke="currentColor" stroke-linecap="round" stroke-linejoin="round" stroke-width="1.2" d="M21 12V5a2 2 0 0 0-2-2H5a2 2 0 0 0-2 2v11m18-4v7a2 2 0 0 1-2 2h-3m5-9c-6.442 0-10.105 1.985-12.055 4.243M3 16v3a2 2 0 0 0 2 2v0h11M3 16c1.403-.234 3.637-.293 5.945.243M16 21c-1.704-2.768-4.427-4.148-7.055-4.757M8.5 7C8 7 7 7.3 7 8.5S8 10 8.5 10 10 9.7 10 8.5 9 7 8.5 7z" /></symbol><symbol fill="none" viewBox="0 0 24 24" id="image-circle"><path stroke="currentColor" stroke-linecap="round" stroke-linejoin="round" stroke-width="1.2" d="M3 16c1.403-.234 3.637-.293 5.945.243M16 21c-1.704-2.768-4.427-4.148-7.055-4.757m0 0C10.895 13.985 14.558 12 21 12h1M8.5 7C8 7 7 7.3 7 8.5S8 10 8.5 10 10 9.7 10 8.5 9 7 8.5 7z" /><circle cx="12" cy="12" r="10" stroke="currentColor" stroke-linecap="round" stroke-linejoin="round" stroke-width="1.2" /></symbol><symbol fill="none" viewBox="0 0 24 24" id="image-circle-plus"><path stroke="currentColor" stroke-linecap="round" stroke-linejoin="round" stroke-width="1.2" d="M3 16c1.403-.234 3.637-.293 5.945.243M16 21c-1.704-2.768-4.427-4.148-7.055-4.757m0 0C10.895 13.985 14.558 12 21 12h1M8.5 7C8 7 7 7.3 7 8.5S8 10 8.5 10 10 9.7 10 8.5 9 7 8.5 7z" /><path stroke="currentColor" stroke-linecap="round" stroke-linejoin="round" stroke-width="1.2" d="M22 12c0 5.523-4.477 10-10 10S2 17.523 2 12 6.477 2 12 2m7 0v3m0 3V5m0 0h3m-3 0h-3" /></symbol><symbol fill="none" viewBox="0 0 24 24" id="image-circle-story"><path stroke="currentColor" stroke-linecap="round" stroke-linejoin="round" stroke-width="1.2" d="M11.23 13.92c1.598.614 2.56 1.587 3.77 3.08m-3.77-3.08c-1.943-.747-3.405-.942-4.73-.92m4.73.92c1.515-1.666 2.51-2.867 6.27-3.42M10 10h.001" /><circle cx="12" cy="12" r="6" stroke="currentColor" stroke-linecap="round" stroke-linejoin="round" stroke-width="1.2" /><path stroke="currentColor" stroke-linecap="round" stroke-linejoin="round" stroke-width="1.2" d="M22 12a9.966 9.966 0 0 1-.832 4M12 22a9.966 9.966 0 0 0 7.071-2.929M2 12a9.966 9.966 0 0 1 2.929-7.071M12 2a9.966 9.966 0 0 0-4 .832m0 18.336A10.02 10.02 0 0 1 2.832 16m13-13A10.02 10.02 0 0 1 21 8.168" /></symbol><symbol fill="none" viewBox="0 0 24 24" id="image-frame"><path stroke="currentColor" stroke-linecap="round" stroke-linejoin="round" stroke-width="1.2" d="M16 20h3a2 2 0 0 0 2-2v-5m-5 7H5a2 2 0 0 1-2-2v-3m13 5c-.558-1.116-2.43-2.979-6.128-4.088M21 13V8a2 2 0 0 0-2-2h-3m5 7c-3.076-.118-8.335.435-11.128 2.912M3 15V8a2 2 0 0 1 2-2h3m-5 9c2.776 0 5.047.364 6.872.912M8 6l2.586-2.586a2 2 0 0 1 2.828 0L16 6M8 6h8M7.5 9C7 9 6 9.3 6 10.5S7 12 7.5 12 9 11.7 9 10.5 8 9 7.5 9z" /></symbol><symbol fill="none" viewBox="0 0 24 24" id="image-multiple"><path stroke="currentColor" stroke-linecap="round" stroke-linejoin="round" stroke-width="1.2" d="M18 9V4a2 2 0 0 0-2-2H4a2 2 0 0 0-2 2v9m16-4v7a2 2 0 0 1-2 2h-2m4-9c-6.442 0-9.105 1.985-11.055 4.243M2 13v4a1 1 0 0 0 1 1v0h11M2 13c1.403-.234 2.637-.293 4.945.243M14 18c-1.704-2.768-4.427-4.148-7.055-4.757M6.5 5C6 5 5 5.3 5 6.5S6 8 6.5 8 8 7.7 8 6.5 7 5 6.5 5z" /><path stroke="currentColor" stroke-linecap="round" stroke-linejoin="round" stroke-width="1.2" d="M22 6v12a4 4 0 0 1-4 4H6" /></symbol><symbol fill="none" viewBox="0 0 24 24" id="image-photography"><path stroke="currentColor" stroke-linecap="round" stroke-linejoin="round" stroke-width="1.2" d="M7 8c-.5 0-1.5.3-1.5 1.5S6.5 11 7 11m-5 6v3a2 2 0 0 0 2 2v0h11M2 17V6a2 2 0 0 1 2-2h3M2 17c1.403-.234 3.637-.293 5.945.243M15 22h3a2 2 0 0 0 2-2v-6m-5 8c-1.704-2.768-4.427-4.148-7.055-4.757m0 0c1.095-1.268 2.73-2.45 5.096-3.243M10 10V5a1 1 0 0 1 1-1h1l2-2h4l2 2h1a1 1 0 0 1 1 1v5a1 1 0 0 1-1 1H11a1 1 0 0 1-1-1z" /><circle cx="16" cy="7" r="1" stroke="currentColor" stroke-linecap="round" stroke-linejoin="round" stroke-width="1.2" /></symbol><symbol fill="none" viewBox="0 0 24 24" id="incognito"><path stroke="currentColor" stroke-linecap="round" stroke-linejoin="round" stroke-width="1.2" d="M3 11h2m16.5 0H19m0 0V6a2 2 0 0 0-2-2H7a2 2 0 0 0-2 2v5m14 0H5" /><circle cx="7" cy="17" r="3" stroke="currentColor" stroke-linecap="round" stroke-linejoin="round" stroke-width="1.2" /><circle cx="17" cy="17" r="3" stroke="currentColor" stroke-linecap="round" stroke-linejoin="round" stroke-width="1.2" /><path stroke="currentColor" stroke-linecap="round" stroke-linejoin="round" stroke-width="1.2" d="M10 16h4" /></symbol><symbol fill="none" viewBox="0 0 24 24" id="info-circle"><circle cx="12" cy="12" r="9" stroke="currentColor" stroke-linecap="round" stroke-linejoin="round" stroke-width="1.2" /><path stroke="currentColor" stroke-linecap="round" stroke-linejoin="round" stroke-width="1.2" d="M12 15v-3m0-3v0" /></symbol><symbol fill="none" viewBox="0 0 24 24" id="key"><path stroke="currentColor" stroke-linecap="round" stroke-linejoin="round" stroke-width="1.2" d="M15 15a6 6 0 1 0-5.743-4.257L9 11l-5.707 5.707a1 1 0 0 0-.293.707V20a1 1 0 0 0 1 1h2a1 1 0 0 0 1-1 1 1 0 0 1 1-1 1 1 0 0 0 1-1 1 1 0 0 1 1-1h.586a1 1 0 0 0 .707-.293L13 15l.257-.257A5.999 5.999 0 0 0 15 15zm2-6a2 2 0 0 0-2-2" /></symbol><symbol fill="none" viewBox="0 0 24 24" id="laptop"><path stroke="currentColor" stroke-linecap="round" stroke-linejoin="round" stroke-width="1.2" d="M4 6a2 2 0 0 1 2-2h12a2 2 0 0 1 2 2v8H4V6zm16 8H4l-1.553 3.106A2 2 0 0 0 4.237 20h15.527a2 2 0 0 0 1.789-2.894L20 14z" /></symbol><symbol fill="none" viewBox="0 0 24 24" id="leaf-3-angled"><path stroke="currentColor" stroke-linecap="round" stroke-linejoin="round" stroke-width="1.2" d="M7.05 16.95c2.343 2.343 6.213 2.273 8.643-.157 3.1-3.1 3.49-7.869 3.463-10.309a1.64 1.64 0 0 0-1.64-1.64c-2.44-.026-7.208.363-10.309 3.463-2.43 2.43-2.5 6.3-.157 8.643zm0 0-2.12 2.12m2.12-2.12 5.657-5.657m2.121-2.121-2.12 2.12m0 0 2.12.708m-2.12-.707L12 9.172m0 5.656-1.173-.39a2 2 0 0 1-1.265-1.265L9.172 12" /></symbol><symbol fill="none" viewBox="0 0 24 24" id="library"><path stroke="currentColor" stroke-linecap="round" stroke-linejoin="round" stroke-width="1.2" d="M4 9v11M4 9h16M4 9H3l9-5 9 5h-1M4 20h16M4 20H3m17 0V9m0 11h1M8 13v3m4 0v-3m4 0v3" /></symbol><symbol fill="none" viewBox="0 0 24 24" id="lidquid-drop-waves"><path stroke="currentColor" stroke-linecap="round" stroke-linejoin="round" stroke-width="1.2" d="M15 8.824C15 11.455 13 12 12 12s-3-.545-3-3.176C9 6.192 12 3 12 3s3 3.192 3 5.824zM3 15l.872.697a2.33 2.33 0 0 0 3.102-.171v0a2.33 2.33 0 0 1 3.164-.122l.18.154c.968.83 2.396.83 3.364 0l.18-.154a2.33 2.33 0 0 1 3.164.121v0a2.33 2.33 0 0 0 3.102.172L21 15m-.5 4-.442.442c-.86.86-2.255.86-3.116 0v0a2.203 2.203 0 0 0-2.99-.114l-.27.23c-.968.83-2.396.83-3.364 0l-.27-.23a2.203 2.203 0 0 0-2.99.114v0c-.86.86-2.255.86-3.116 0L3.5 19" /></symbol><symbol fill="none" viewBox="0 0 24 24" id="lifebuoy"><circle cx="12" cy="12" r="9" stroke="currentColor" stroke-linecap="round" stroke-linejoin="round" stroke-width="1.2" /><path stroke="currentColor" stroke-linecap="round" stroke-linejoin="round" stroke-width="1.2" d="m18 6-3.172 3.172M6 18l3.172-3.172M6 6l3.172 3.172M18 18l-3.172-3.172m0-5.656A3.987 3.987 0 0 0 12 8a3.987 3.987 0 0 0-2.828 1.172m5.656 0A3.984 3.984 0 0 1 16 12a3.987 3.987 0 0 1-1.172 2.828M9.172 9.172A3.987 3.987 0 0 0 8 12c0 1.105.448 2.105 1.172 2.828m0 0A3.987 3.987 0 0 0 12 16a3.987 3.987 0 0 0 2.828-1.172" /></symbol><symbol fill="none" viewBox="0 0 24 24" id="lightbulb-shine"><path stroke="currentColor" stroke-linecap="round" stroke-linejoin="round" stroke-width="1.2" d="M21 12h1m-3.5-6.5 1-1M12 3V2M5.5 5.5l-1-1M3 12H2m8 10h4m3-10a5 5 0 1 0-7 4.584V19h4v-2.416A5.001 5.001 0 0 0 17 12z" /></symbol><symbol fill="none" viewBox="0 0 24 24" id="lightning-bolt"><path stroke="currentColor" stroke-linecap="round" stroke-linejoin="round" stroke-width="1.2" d="M4 14 14 3v7h6L10 21v-7H4z" /></symbol><symbol fill="none" viewBox="0 0 24 24" id="list-box"><path stroke="currentColor" stroke-linecap="round" stroke-linejoin="round" stroke-width="1.2" d="M11 8h5m0 4h-5m5 4h-5m-5 4h12a2 2 0 0 0 2-2V6a2 2 0 0 0-2-2H6a2 2 0 0 0-2 2v12a2 2 0 0 0 2 2zM8 8h.001M8 12h.001M8 16h.001" /></symbol><symbol fill="none" viewBox="0 0 24 24" id="lock"><path stroke="currentColor" stroke-linecap="round" stroke-linejoin="round" stroke-width="1.2" d="M8 10H6a2 2 0 0 0-2 2v7a2 2 0 0 0 2 2h12a2 2 0 0 0 2-2v-7a2 2 0 0 0-2-2h-2m-8 0V7a4 4 0 0 1 4-4v0a4 4 0 0 1 4 4v3m-8 0h8m-4 4v3" /></symbol><symbol fill="none" viewBox="0 0 24 24" id="lock-off"><path stroke="currentColor" stroke-linecap="round" stroke-linejoin="round" stroke-width="1.2" d="M8 10H6a2 2 0 0 0-2 2v7a2 2 0 0 0 2 2h12a2 2 0 0 0 1.732-1M8 10V8m0 2h2m6 0h2a2 2 0 0 1 2 2v3m-4-5V7a4 4 0 0 0-6-3.465M16 10h-1m-3 4v3M3 3l18 18" /></symbol><symbol fill="none" viewBox="0 0 24 24" id="login"><path stroke="currentColor" stroke-linecap="round" stroke-linejoin="round" stroke-width="1.2" d="M9 3h8a2 2 0 0 1 2 2v14a2 2 0 0 1-2 2H9m6-9-4-4m4 4-4 4m4-4H5" /></symbol><symbol fill="none" viewBox="0 0 24 24" id="login-half-circle"><path stroke="currentColor" stroke-linecap="round" stroke-linejoin="round" stroke-width="1.2" d="m15 12-4-4m4 4-4 4m4-4H5m5 9a9 9 0 1 0 0-18" /></symbol><symbol fill="none" viewBox="0 0 24 24" id="logout"><path stroke="currentColor" stroke-linecap="round" stroke-linejoin="round" stroke-width="1.2" d="M15 3H7a2 2 0 0 0-2 2v14a2 2 0 0 0 2 2h8m4-9-4-4m4 4-4 4m4-4H9" /></symbol><symbol fill="none" viewBox="0 0 24 24" id="logout-half-circle"><path stroke="currentColor" stroke-linecap="round" stroke-linejoin="round" stroke-width="1.2" d="m19 12-4-4m4 4-4 4m4-4H9m5 9a9 9 0 1 1 0-18" /></symbol><symbol fill="none" viewBox="0 0 24 24" id="mail"><path stroke="currentColor" stroke-linecap="round" stroke-linejoin="round" stroke-width="1.2" d="m7 9 3.75 3a2 2 0 0 0 2.5 0L17 9m4 8V7a2 2 0 0 0-2-2H5a2 2 0 0 0-2 2v10a2 2 0 0 0 2 2h14a2 2 0 0 0 2-2z" /></symbol><symbol fill="none" viewBox="0 0 24 24" id="map-marker"><path stroke="currentColor" stroke-linecap="round" stroke-linejoin="round" stroke-width="1.2" d="M19 10c0 3.976-7 11-7 11s-7-7.024-7-11 3.134-7 7-7 7 3.024 7 7z" /><circle cx="12" cy="10" r="3" stroke="currentColor" stroke-linecap="round" stroke-linejoin="round" stroke-width="1.2" /></symbol><symbol fill="none" viewBox="0 0 24 24" id="map-marker-area"><path stroke="currentColor" stroke-linecap="round" stroke-linejoin="round" stroke-width="1.2" d="M18 16.016c1.245.529 2 1.223 2 1.984 0 1.657-3.582 3-8 3s-8-1.343-8-3c0-.76.755-1.456 2-1.984" /><path stroke="currentColor" stroke-linecap="round" stroke-linejoin="round" stroke-width="1.2" d="M17 8.444C17 11.537 12 17 12 17s-5-5.463-5-8.556C7 5.352 9.239 3 12 3s5 2.352 5 5.444z" /><circle cx="12" cy="8" r="1" stroke="currentColor" stroke-linecap="round" stroke-linejoin="round" stroke-width="1.2" /></symbol><symbol fill="none" viewBox="0 0 24 24" id="map-marker-path"><path stroke="currentColor" stroke-linecap="round" stroke-linejoin="round" stroke-width="1.2" d="M5 9a2 2 0 1 0 0-4 2 2 0 0 0 0 4zm0 0v1m0 7v-1m2 3a2 2 0 1 0-4 0 2 2 0 0 0 4 0zm0 0h1m9-2a2 2 0 1 1-2 2m2-2a2 2 0 0 0-2 2m2-2v-1m-2 3h-1" /><circle cx="5" cy="13" r="1" fill="currentColor" /><circle cx="11" cy="19" r="1" fill="currentColor" /><path stroke="currentColor" stroke-linecap="round" stroke-linejoin="round" stroke-width="1.2" d="M21 7c0 2.611-4 6-4 6s-4-3.389-4-6 1.79-4 4-4 4 1.389 4 4z" /><circle cx="17" cy="7" r="1" fill="currentColor" /></symbol><symbol fill="none" viewBox="0 0 24 24" id="map-simple"><path stroke="currentColor" stroke-linecap="round" stroke-linejoin="round" stroke-width="1.2" d="M9 4 3 8v12l6-4 6 4 6-4V4l-6 4-6-4z" /></symbol><symbol fill="none" viewBox="0 0 24 24" id="map-simple-marker"><path stroke="currentColor" stroke-linecap="round" stroke-linejoin="round" stroke-width="1.2" d="M21 9V4l-6 4-6-4-6 4v12l6-4 1 .667" /><path stroke="currentColor" stroke-linecap="round" stroke-linejoin="round" stroke-width="1.2" d="M21 15c0 2.611-4 6-4 6s-4-3.389-4-6 1.79-4 4-4 4 1.389 4 4zm-4 .001V15" /></symbol><symbol fill="none" viewBox="0 0 24 24" id="maximize"><path stroke="currentColor" stroke-linecap="round" stroke-linejoin="round" stroke-width="1.2" d="M8 20H4m0 0v-4m0 4 6-6m6-10h4m0 0v4m0-4-6 6" /></symbol><symbol fill="none" viewBox="0 0 24 24" id="megaphone"><path stroke="currentColor" stroke-linecap="round" stroke-linejoin="round" stroke-width="1.2" d="M13 15V7m0 8 5.504 3.145A1 1 0 0 0 20 17.277V4.723a1 1 0 0 0-1.496-.868L13 7m0 8h-3m3-8H7a4 4 0 0 0-4 4v0a4 4 0 0 0 4 4v0m0 0v4.5A1.5 1.5 0 0 0 8.5 21v0a1.5 1.5 0 0 0 1.5-1.5V15m-3 0h3" /></symbol><symbol fill="none" viewBox="0 0 24 24" id="menu"><path stroke="currentColor" stroke-linecap="round" stroke-linejoin="round" stroke-width="1.2" d="M6 8h12M6 12h12M6 16h12" /></symbol><symbol fill="none" viewBox="0 0 24 24" id="microphone"><path stroke="currentColor" stroke-linecap="round" stroke-linejoin="round" stroke-width="1.2" d="M9 6a3 3 0 0 1 3-3v0a3 3 0 0 1 3 3v5a3 3 0 0 1-3 3v0a3 3 0 0 1-3-3V6zm3 12v0a7 7 0 0 1-7-7v0-1m7 8v0a7 7 0 0 0 7-7v0-1m-7 8v3" /></symbol><symbol fill="none" viewBox="0 0 24 24" id="money"><path stroke="currentColor" stroke-linecap="round" stroke-linejoin="round" stroke-width="1.2" d="M3 10V8a2 2 0 0 1 2-2h2m-4 4c1.333 0 4-.8 4-4m-4 4v4m18-4V8a2 2 0 0 0-2-2h-2m4 4c-1.333 0-4-.8-4-4m4 4v4M7 6h10m4 8v2a2 2 0 0 1-2 2h-2m4-4c-1.333 0-4 .8-4 4m0 0H7m-4-4v2a2 2 0 0 0 2 2h2m-4-4c1.333 0 4 .8 4 4" /><circle cx="12" cy="12" r="2" stroke="currentColor" stroke-linecap="round" stroke-linejoin="round" stroke-width="1.2" /></symbol><symbol fill="none" viewBox="0 0 24 24" id="monitor"><path stroke="currentColor" stroke-linecap="round" stroke-linejoin="round" stroke-width="1.2" d="M12 16h7a2 2 0 0 0 2-2V6a2 2 0 0 0-2-2H5a2 2 0 0 0-2 2v8a2 2 0 0 0 2 2h7zm0 0v4m0 0h4m-4 0H8" /></symbol><symbol fill="none" viewBox="0 0 24 24" id="more-menu"><path stroke="currentColor" stroke-linecap="round" stroke-linejoin="round" stroke-width="1.2" d="M12 12h.01M8 12h.01M16 12h.01" /></symbol><symbol fill="none" viewBox="0 0 24 24" id="more-menu-vertical"><path stroke="currentColor" stroke-linecap="round" stroke-linejoin="round" stroke-width="1.2" d="M12.005 11.995v.01m0-4.01v.01m0 7.99v.01" /></symbol><symbol fill="none" viewBox="0 0 24 24" id="mouse"><path stroke="currentColor" stroke-linecap="round" stroke-linejoin="round" stroke-width="1.2" d="M18 11V9a6 6 0 0 0-6-6v0m6 8v4a6 6 0 0 1-6 6v0a6 6 0 0 1-6-6v-4m12 0h-6m-6 0V9a6 6 0 0 1 6-6v0m-6 8h6m0 0V3" /></symbol><symbol fill="none" viewBox="0 0 24 24" id="music"><circle cx="6" cy="18" r="3" stroke="currentColor" stroke-linecap="round" stroke-linejoin="round" stroke-width="1.2" /><circle cx="18" cy="17" r="3" stroke="currentColor" stroke-linecap="round" stroke-linejoin="round" stroke-width="1.2" /><path stroke="currentColor" stroke-linecap="round" stroke-linejoin="round" stroke-width="1.2" d="M9 18v-8m12 7V7M9 10V6l12-3v4M9 10l12-3" /></symbol><symbol fill="none" viewBox="0 0 24 24" id="note-text"><path stroke="currentColor" stroke-linecap="round" stroke-linejoin="round" stroke-width="1.2" d="M21 15V5a2 2 0 0 0-2-2H5a2 2 0 0 0-2 2v14a2 2 0 0 0 2 2h10m6-6v.172a2 2 0 0 1-.586 1.414l-3.828 3.828a2 2 0 0 1-1.414.586H15m6-6h-4a2 2 0 0 0-2 2v4M7 7h10M7 11h10M7 15h4" /></symbol><symbol fill="none" viewBox="0 0 24 24" id="noteblock"><path stroke="currentColor" stroke-linecap="round" stroke-linejoin="round" stroke-width="1.2" d="M8 3v4m4 0V3m4 0v4M6 21h12a2 2 0 0 0 2-2V7a2 2 0 0 0-2-2H6a2 2 0 0 0-2 2v12a2 2 0 0 0 2 2z" /></symbol><symbol fill="none" viewBox="0 0 24 24" id="noteblock-text"><path stroke="currentColor" stroke-linecap="round" stroke-linejoin="round" stroke-width="1.2" d="M8 3v4m4 0V3m4 0v4m-8 4h8m-8 4h4m-6 6h12a2 2 0 0 0 2-2V7a2 2 0 0 0-2-2H6a2 2 0 0 0-2 2v12a2 2 0 0 0 2 2z" /></symbol><symbol fill="none" viewBox="0 0 24 24" id="open"><path stroke="currentColor" stroke-linecap="round" stroke-linejoin="round" stroke-width="1.2" d="M10 4H6a2 2 0 0 0-2 2v12a2 2 0 0 0 2 2h12a2 2 0 0 0 2-2v-4m-8-2 8-8m0 0v5m0-5h-5" /></symbol><symbol fill="none" viewBox="0 0 24 24" id="paper-fold"><path stroke="currentColor" stroke-linecap="round" stroke-linejoin="round" stroke-width="1.2" d="M5 13V5a2 2 0 0 1 2-2h12a2 2 0 0 1 2 2v13c0 1-.6 3-3 3m0 0H6c-1 0-3-.6-3-3v-2h12v2c0 2.4 2 3 3 3z" /></symbol><symbol fill="none" viewBox="0 0 24 24" id="paper-fold-text"><path stroke="currentColor" stroke-linecap="round" stroke-linejoin="round" stroke-width="1.2" d="M5 13V5a2 2 0 0 1 2-2h12a2 2 0 0 1 2 2v13c0 1-.6 3-3 3m0 0H6c-1 0-3-.6-3-3v-2h12v2c0 2.4 2 3 3 3zM9 7h8m-8 4h4" /></symbol><symbol fill="none" viewBox="0 0 24 24" id="pause-circle"><path stroke="currentColor" stroke-linecap="round" stroke-linejoin="round" stroke-width="1.2" d="M7 9h3v6H7zm7 0h3v6h-3z" /><circle r="10" stroke="currentColor" stroke-linecap="round" stroke-linejoin="round" stroke-width="1.2" transform="matrix(-1 0 0 1 12 12)" /></symbol><symbol fill="none" viewBox="0 0 24 24" id="percent"><path stroke="currentColor" stroke-linecap="round" stroke-linejoin="round" stroke-width="1.2" d="M6 18 18 6" /><circle cx="16.5" cy="16.5" r="2.5" stroke="currentColor" stroke-linecap="round" stroke-linejoin="round" stroke-width="1.2" /><circle cx="7.5" cy="7.5" r="2.5" stroke="currentColor" stroke-linecap="round" stroke-linejoin="round" stroke-width="1.2" /></symbol><symbol fill="none" viewBox="0 0 24 24" id="phone"><path stroke="currentColor" stroke-linecap="round" stroke-linejoin="round" stroke-width="1.2" d="M13 18.675c1.93.83 4.242 1.325 7 1.325v-4l-4-1-3 3.675zm0 0C9.159 17.023 6.824 14.045 5.5 11m0 0C4.4 8.472 4 5.898 4 4h4l1 4-3.5 3z" /></symbol><symbol fill="none" viewBox="0 0 24 24" id="phone-retro"><path stroke="currentColor" stroke-linecap="round" stroke-linejoin="round" stroke-width="1.2" d="M17.5 4.842C15.976 4.337 14.146 4 12 4c-2.145 0-3.976.337-5.5.842m11 0c3.021 1 4.835 2.66 5.5 3.658L20.5 11l-3-2V4.842zm-11 0c-3.021 1-4.835 2.66-5.5 3.658L3.5 11l3-2V4.842zM10 7v3m0 0-5.414 5.414A2 2 0 0 0 4 16.828V18a2 2 0 0 0 2 2h12a2 2 0 0 0 2-2v-1.172a2 2 0 0 0-.586-1.414L14 10m-4 0h4m0 0V7" /><circle cx="12" cy="15" r="2" stroke="currentColor" stroke-linecap="round" stroke-linejoin="round" stroke-width="1.2" /></symbol><symbol fill="none" viewBox="0 0 24 24" id="phone-ring"><path stroke="currentColor" stroke-linecap="round" stroke-linejoin="round" stroke-width="1.2" d="M17.5 13.842C15.976 13.337 14.146 13 12 13c-2.145 0-3.976.337-5.5.842m11 0c3.021 1 4.835 2.66 5.5 3.658L20.5 20l-3-2v-4.158zm-11 0c-3.021 1-4.835 2.66-5.5 3.658L3.5 20l3-2v-4.158zM12 4v4M4.636 6.636l2.828 2.828m11.9-2.828-2.828 2.828" /></symbol><symbol fill="none" viewBox="0 0 24 24" id="pin"><path stroke="currentColor" stroke-linecap="round" stroke-linejoin="round" stroke-width="1.2" d="m4 20 5-5m0 0 3.956 3.956a1 1 0 0 0 1.626-.314l2.255-5.261a1 1 0 0 1 .548-.535l3.207-1.283a1 1 0 0 0 .336-1.635l-6.856-6.856a1 1 0 0 0-1.635.336l-1.283 3.207a1 1 0 0 1-.535.548L5.358 9.418a1 1 0 0 0-.314 1.626L9 15z" /></symbol><symbol fill="none" viewBox="0 0 24 24" id="pinwheel"><path stroke="currentColor" stroke-linecap="round" stroke-linejoin="round" stroke-width="1.2" d="M17 7a5.001 5.001 0 0 0-4.607 3.053C11.963 11.07 12.896 12 14 12h6c1.105 0 2.037-.93 1.607-1.947A5.001 5.001 0 0 0 17 7zm0 10a5.001 5.001 0 0 0-3.053-4.607C12.93 11.963 12 12.896 12 14v6c0 1.105.93 2.037 1.947 1.607A5.001 5.001 0 0 0 17 17zM7 17a5.001 5.001 0 0 0 4.607-3.053C12.037 12.93 11.104 12 10 12H4c-1.105 0-2.037.93-1.607 1.947A5.001 5.001 0 0 0 7 17zM7 7a5.001 5.001 0 0 0 3.053 4.607C11.07 12.037 12 11.104 12 10V4c0-1.105-.93-2.037-1.947-1.607A5.001 5.001 0 0 0 7 7z" /></symbol><symbol fill="none" viewBox="0 0 24 24" id="planet"><path stroke="currentColor" stroke-linecap="round" stroke-linejoin="round" stroke-width="1.2" d="M5.292 6A8.967 8.967 0 0 0 3 12c0 .687.077 1.357.223 2m2.069-8a9.003 9.003 0 0 1 15.485 4M5.292 6H12m8.777 4a9 9 0 0 1-15.485 8m15.485-8H15M3.223 14H13m-9.777 0a8.975 8.975 0 0 0 2.069 4m0 0H11m1-8h-2m-3 0h0m9 4h0" /></symbol><symbol fill="none" viewBox="0 0 24 24" id="planet-ring"><circle cx="12" cy="12" r="7" stroke="currentColor" stroke-linecap="round" stroke-linejoin="round" stroke-width="1.2" /><path stroke="currentColor" stroke-linecap="round" stroke-linejoin="round" stroke-width="1.2" d="M18 7.96c2.59-.125 4.379.274 4.625 1.193.429 1.6-3.98 4.172-9.849 5.745-5.868 1.572-10.972 1.55-11.401-.051-.254-.948 1.188-2.236 3.625-3.455" /></symbol><symbol fill="none" viewBox="0 0 24 24" id="planet-rocket"><g clip-path="url(#planet-rocket_a)"><path stroke="currentColor" stroke-linecap="round" stroke-linejoin="round" stroke-width="1.2" d="m14.672 19.157-2.829-2.829m2.829 2.829 1.4 2.814c.711-.693 3.122-3.919 1.413-5.628m-2.813 2.814 2.813-2.814m-5.642-.015 2.829-2.828.014-.015m-2.843 2.843L9 14.9c.722-.703 4.001-3.1 5.686-1.415m2.814 2.843-.015.015m0 0 2.502-2.501a8 8 0 0 0 2.145-3.89l.318-1.402-1.402.318a8 8 0 0 0-3.89 2.145l-2.472 2.472m-11.272-.172c-1.339 2.117-1.85 3.806-1.192 4.465.586.586 1.987.246 3.778-.778m7.313-13.586c2.117-1.339 3.806-1.85 4.465-1.192.886.885-.345 3.634-2.854 6.778m-10.67 5A7.002 7.002 0 0 1 14 4.254" /></g><defs></defs></symbol><clipPath id="planet-rocket_a"><path fill="#fff" d="M0 0h24v24H0z" /></clipPath><symbol fill="none" viewBox="0 0 24 24" id="plus"><path stroke="currentColor" stroke-linecap="round" stroke-linejoin="round" stroke-width="1.2" d="M5 12h7m7 0h-7m0 0V5m0 7v7" /></symbol><symbol fill="none" viewBox="0 0 24 24" id="presentation"><path stroke="currentColor" stroke-linecap="round" stroke-linejoin="round" stroke-width="1.2" d="M3 3h1m17 0h-1m0 0v12h-6m6-12H4m0 0v12h6m0 0-2 6m2-6h4m0 0 2 6" /></symbol><symbol fill="none" viewBox="0 0 24 24" id="pulse"><path stroke="currentColor" stroke-linecap="round" stroke-linejoin="round" stroke-width="1.2" d="M3 12h4l3 7 4-14 3 7h4" /></symbol><symbol fill="none" viewBox="0 0 24 24" id="puzzle"><path stroke="currentColor" stroke-linecap="round" stroke-linejoin="round" stroke-width="1.2" d="M16.75 6H20a1 1 0 0 1 1 1v3.25a.75.75 0 0 1-.75.75H20a2 2 0 1 0 0 4h.25a.75.75 0 0 1 .75.75V20a1 1 0 0 1-1 1h-3.25a.75.75 0 0 1-.75-.75V20a2 2 0 1 0-4 0v.25a.75.75 0 0 1-.75.75H7a1 1 0 0 1-1-1v-4.25a.75.75 0 0 0-.75-.75H5a2 2 0 1 1 0-4h.25a.75.75 0 0 0 .75-.75V7a1 1 0 0 1 1-1h4.25a.75.75 0 0 0 .75-.75V5a2 2 0 1 1 4 0v.25c0 .414.336.75.75.75z" /></symbol><symbol fill="none" viewBox="0 0 24 24" id="qr-code"><path stroke="currentColor" stroke-linecap="round" stroke-linejoin="round" stroke-width="1.2" d="M20 18v2h-2m2-6h-1l-2 2m-1 2h-2v2M4 4h6v6H4V4zm10 0h6v6h-6V4zM4 14h6v6H4v-6zm10 0v1h1v-1h-1zm3-7h.001M7 7h.001M7 17h.001" /></symbol><symbol fill="none" viewBox="0 0 24 24" id="question-circle"><circle cx="12" cy="12" r="9" stroke="currentColor" stroke-linecap="round" stroke-linejoin="round" stroke-width="1.2" /><path stroke="currentColor" stroke-linecap="round" stroke-linejoin="round" stroke-width="1.2" d="M12 12a2 2 0 1 0-2-2m2 5h.01" /></symbol><symbol fill="none" viewBox="0 0 24 24" id="receipt-text"><path stroke="currentColor" stroke-linecap="round" stroke-linejoin="round" stroke-width="1.2" d="M8 7h8m-8 4h8m-8 4h4m8 6V5a2 2 0 0 0-2-2H6a2 2 0 0 0-2 2v16l2.5-2 3 2 2.5-2 2.5 2 3-2 2.5 2z" /></symbol><symbol fill="none" viewBox="0 0 24 24" id="reload"><path stroke="currentColor" stroke-linecap="round" stroke-linejoin="round" stroke-width="1.2" d="M19 13.5A7.5 7.5 0 1 1 11.5 6H20m0 0-3-3m3 3-3 3" /></symbol><symbol fill="none" viewBox="0 0 24 24" id="reload-circle"><circle cx="12" cy="12" r="9" stroke="currentColor" stroke-linecap="round" stroke-linejoin="round" stroke-width="1.2" /><path stroke="currentColor" stroke-linecap="round" stroke-linejoin="round" stroke-width="1.2" d="m13 8 2 2-2 2m0-2h-1c-1 0-3 .6-3 3s2 3 3 3c.534 0 1.353-.171 2-.695" /></symbol><symbol fill="none" viewBox="0 0 24 24" id="repeat-circle"><path stroke="currentColor" stroke-linecap="round" stroke-linejoin="round" stroke-width="1.2" d="m8 8 2-2M8 8l2 2M8 8h6a2 2 0 0 1 2 2v1m0 5-2 2m2-2-2-2m2 2h-6a2 2 0 0 1-2-2v-1" /><circle r="10" stroke="currentColor" stroke-linecap="round" stroke-linejoin="round" stroke-width="1.2" transform="matrix(-1 0 0 1 12 12)" /></symbol><symbol fill="none" viewBox="0 0 24 24" id="restricted"><path stroke="currentColor" stroke-linecap="round" stroke-linejoin="round" stroke-width="1.2" d="M5.636 5.636a9 9 0 1 0 12.728 12.728M5.636 5.636a9 9 0 1 1 12.728 12.728M5.636 5.636 12 12l6.364 6.364" /></symbol><symbol fill="none" viewBox="0 0 24 24" id="save"><path stroke="currentColor" stroke-linecap="round" stroke-linejoin="round" stroke-width="1.2" d="M8 4H4v16h16V8l-4-4h-2M8 4v4h6V4M8 4h6m-2 8c-.667 0-2 .4-2 2s1.333 2 2 2 2-.4 2-2-1.333-2-2-2z" /></symbol><symbol fill="none" viewBox="0 0 24 24" id="scan-fingerprint"><path stroke="currentColor" stroke-linecap="round" stroke-linejoin="round" stroke-width="1.2" d="M12 19v-8m-3 7v-7c0-1 .6-3 3-3s3 2 3 3v6m-9-3v-3c0-2 1.2-6 6-6s6 4 6 6m0 4v-1M6.001 17H6M7 3H5a2 2 0 0 0-2 2v2m0 10v2a2 2 0 0 0 2 2h2m10 0h2a2 2 0 0 0 2-2v-2m0-10V5a2 2 0 0 0-2-2h-2" /></symbol><symbol fill="none" viewBox="0 0 24 24" id="scan-user"><path stroke="currentColor" stroke-linecap="round" stroke-linejoin="round" stroke-width="1.2" d="M7 3H5a2 2 0 0 0-2 2v2m0 10v2a2 2 0 0 0 2 2h2m10 0h2a2 2 0 0 0 2-2v-2m0-10V5a2 2 0 0 0-2-2h-2" /><circle cx="12" cy="9" r="3" stroke="currentColor" stroke-linecap="round" stroke-linejoin="round" stroke-width="1.2" /><path stroke="currentColor" stroke-linecap="round" stroke-linejoin="round" stroke-width="1.2" d="M17 16c0-2.21-2.239-4-5-4s-5 1.79-5 4" /></symbol><symbol fill="none" viewBox="0 0 24 24" id="scooter"><path stroke="currentColor" stroke-linecap="round" stroke-linejoin="round" stroke-width="1.2" d="M15 5a3 3 0 1 0-6 0m6 0h3m-3 0c0 .903-.399 1.713-1.03 2.263M9 5H6m3 0c0 .903.399 1.713 1.03 2.263M14 20h2a2 2 0 0 0 2-2v-5c0-1.692-.859-4.816-4.03-5.737M14 20v0a2 2 0 0 1-2 2v0a2 2 0 0 1-2-2v0m4 0v-5a2 2 0 0 0-2-2v0a2 2 0 0 0-2 2v5m0 0H8a2 2 0 0 1-2-2v-5c0-1.692.859-4.816 4.03-5.737m3.94 0A2.988 2.988 0 0 1 12 8a2.988 2.988 0 0 1-1.97-.737" /></symbol><symbol fill="none" viewBox="0 0 24 24" id="scroll"><path stroke="currentColor" stroke-linecap="round" stroke-linejoin="round" stroke-width="1.2" d="M15 20c-3.2 0-4-2.667-4-4H3v2a2 2 0 0 0 2 2h10zm0 0a3 3 0 0 0 3-3v-7m0-6H7a2 2 0 0 0-2 2v10M18 4h1a2 2 0 0 1 2 2v2a2 2 0 0 1-2 2h-1m0-6v6" /></symbol><symbol fill="none" viewBox="0 0 24 24" id="scroll-text"><path stroke="currentColor" stroke-linecap="round" stroke-linejoin="round" stroke-width="1.2" d="M15 20c-3.2 0-4-2.667-4-4H3v2a2 2 0 0 0 2 2h10zm0 0a3 3 0 0 0 3-3v-7m0-6H7a2 2 0 0 0-2 2v10M18 4h1a2 2 0 0 1 2 2v2a2 2 0 0 1-2 2h-1m0-6v6m-4-2H9m2 4H9" /></symbol><symbol fill="none" viewBox="0 0 24 24" id="search"><path stroke="currentColor" stroke-linecap="round" stroke-linejoin="round" stroke-width="1.2" d="m20 20-4.05-4.05m0 0a7 7 0 1 0-9.9-9.9 7 7 0 0 0 9.9 9.9z" /></symbol><symbol fill="none" viewBox="0 0 24 24" id="send"><path stroke="currentColor" stroke-linecap="round" stroke-linejoin="round" stroke-width="1.2" d="m6 12-3 9 18-9L3 3l3 9zm0 0h6" /></symbol><symbol fill="none" viewBox="0 0 24 24" id="server"><path stroke="currentColor" stroke-linecap="round" stroke-linejoin="round" stroke-width="1.2" d="M3 12V8a2 2 0 0 1 2-2h14a2 2 0 0 1 2 2v4M3 12h18M3 12v4a2 2 0 0 0 2 2h14a2 2 0 0 0 2-2v-4M6 9h.01M6 15h.01M9 9h.01M9 15h.01" /></symbol><symbol fill="none" viewBox="0 0 24 24" id="settings-cog"><path stroke="currentColor" stroke-linecap="round" stroke-linejoin="round" stroke-width="1.2" d="M14 21h-4l-.551-2.48a6.991 6.991 0 0 1-1.819-1.05l-2.424.763-2-3.464 1.872-1.718a7.055 7.055 0 0 1 0-2.1L3.206 9.232l2-3.464 2.424.763A6.992 6.992 0 0 1 9.45 5.48L10 3h4l.551 2.48a6.992 6.992 0 0 1 1.819 1.05l2.424-.763 2 3.464-1.872 1.718a7.05 7.05 0 0 1 0 2.1l1.872 1.718-2 3.464-2.424-.763a6.99 6.99 0 0 1-1.819 1.052L14 21z" /><circle cx="12" cy="12" r="3" stroke="currentColor" stroke-width="1.2" /></symbol><symbol fill="none" viewBox="0 0 24 24" id="settings-cog-check"><path stroke="currentColor" stroke-linecap="round" stroke-linejoin="round" stroke-width="1.2" d="M14 21h-4l-.551-2.48a6.991 6.991 0 0 1-1.819-1.05l-2.424.763-2-3.464 1.872-1.718a7.055 7.055 0 0 1 0-2.1L3.206 9.232l2-3.464 2.424.763A6.992 6.992 0 0 1 9.45 5.48L10 3h4l.551 2.48a6.994 6.994 0 0 1 1.819 1.05l2.424-.763 2 3.464-1.872 1.718a7.05 7.05 0 0 1 0 2.1l1.872 1.718-2 3.464-2.424-.763a6.992 6.992 0 0 1-1.819 1.052L14 21z" /><path stroke="currentColor" stroke-linecap="round" stroke-linejoin="round" stroke-width="1.2" d="m9 12 2 2 4-4" /></symbol><symbol fill="none" viewBox="0 0 24 24" id="share"><path stroke="currentColor" stroke-linecap="round" stroke-linejoin="round" stroke-width="1.2" d="m20 12-6.4-7v3.5C10.4 8.5 4 10.6 4 19c0-1.167 1.92-3.5 9.6-3.5V19l6.4-7z" /></symbol><symbol fill="none" viewBox="0 0 24 24" id="share-circle"><path stroke="currentColor" stroke-linecap="round" stroke-linejoin="round" stroke-width="1.2" d="m17 11-4-4v2c-2 0-6 2.2-6 7 0-.667 1.2-3 6-3v2l4-4z" /><circle cx="12" cy="12" r="10" stroke="currentColor" stroke-linecap="round" stroke-linejoin="round" stroke-width="1.2" /></symbol><symbol fill="none" viewBox="0 0 24 24" id="shield"><path stroke="currentColor" stroke-linecap="round" stroke-linejoin="round" stroke-width="1.2" d="M19 14c0 4-7 7-7 7s-7-3-7-7V5c1.5.167 5 0 7-2 2 2 5.5 2.167 7 2v9z" /></symbol><symbol fill="none" viewBox="0 0 24 24" id="shield-off"><path stroke="currentColor" stroke-linecap="round" stroke-linejoin="round" stroke-width="1.2" d="M19 14V5c-1.5.167-5 0-7-2-.571.571-1.265.993-2 1.3M5 5v9c0 4 7 7 7 7s3.204-1.373 5.277-3.5M3 3l18 18" /></symbol><symbol fill="none" viewBox="0 0 24 24" id="shield-plus"><path stroke="currentColor" stroke-linecap="round" stroke-linejoin="round" stroke-width="1.2" d="M19 14c0 4-7 7-7 7s-7-3-7-7V5c1.5.167 5 0 7-2 2 2 5.5 2.167 7 2v9zm-7-5v3m0 3v-3m0 0h3m-3 0H9" /></symbol><symbol fill="none" viewBox="0 0 24 24" id="ship"><path stroke="currentColor" stroke-linecap="round" stroke-linejoin="round" stroke-width="1.2" d="m19 16 2-4-4-.889M12 10v5m0-5-5 1.111M12 10l5 1.111M5 16l-2-4 4-.889m0 0L6 6h4m7 5.111L18 6h-4m0 0V3h-4v3m4 0h-4M3 20l1.245-.498a2.57 2.57 0 0 1 2.38.248v0a2.57 2.57 0 0 0 3.36-.446l.035-.04a2.631 2.631 0 0 1 3.96 0l.036.04a2.57 2.57 0 0 0 3.36.446v0a2.57 2.57 0 0 1 2.38-.248L21 20" /></symbol><symbol fill="none" viewBox="0 0 24 24" id="shooting-star"><path stroke="currentColor" stroke-linecap="round" stroke-linejoin="round" stroke-width="1.2" d="M9 8c-1.667.667-5.4 2.7-7 5.5m9.5-2.5C9.167 12.333 4 16.4 2 22m10.5-7.5c-1.167 1.167-3.8 4.1-5 6.5m7.174-14.55.673-3.285 2.225 2.51 3.027-.294-1.768 3.062 1.743 2.639-3.286-.673-2.51 2.225.19-3.156-3.062-1.768 2.768-1.26z" /></symbol><symbol fill="none" viewBox="0 0 24 24" id="shopping-cart"><path stroke="currentColor" stroke-linecap="round" stroke-linejoin="round" stroke-width="1.2" d="M3 3h2l.5 3m0 0L7 15h11l3-9H5.5z" /><circle cx="8" cy="20" r="1" stroke="currentColor" stroke-linecap="round" stroke-linejoin="round" stroke-width="1.2" /><circle cx="17" cy="20" r="1" stroke="currentColor" stroke-linecap="round" stroke-linejoin="round" stroke-width="1.2" /></symbol><symbol fill="none" viewBox="0 0 24 24" id="sim-card"><path stroke="currentColor" stroke-linecap="round" stroke-linejoin="round" stroke-width="1.2" d="M19 19V5a2 2 0 0 0-2-2h-6.172a2 2 0 0 0-1.414.586L5.586 7.414A2 2 0 0 0 5 8.828V19c0 1.105.893 2 1.997 2h10.004A2 2 0 0 0 19 19z" /></symbol><symbol fill="none" viewBox="0 0 24 24" id="sitemap"><path stroke="currentColor" stroke-linecap="round" stroke-linejoin="round" stroke-width="1.2" d="M10 4h4v4h-4zm0 12h4v4h-4zm-7 0h4v4H3zm14 0h4v4h-4zm-5-8v4m0 4v-4m0 0h5a2 2 0 0 1 2 2v2m-7-4H7a2 2 0 0 0-2 2v2" /></symbol><symbol fill="none" viewBox="0 0 24 24" id="smartphone-apps"><path stroke="currentColor" stroke-linecap="round" stroke-linejoin="round" stroke-width="1.2" d="M18 19V5a2 2 0 0 0-2-2H8a2 2 0 0 0-2 2v14a2 2 0 0 0 2 2h8a2 2 0 0 0 2-2zM9 6.001V6m0 3.001V9m3 .001V9m0-2.999V6m3 .001V6m0 3.001V9m-6 3.001V12m3 .001V12" /></symbol><symbol viewBox="0 0 20 20" id="star"><path fill="none" stroke="currentColor" stroke-width="1.01" d="m10 2 2.63 5.27 5.87.85-4.25 4.1 1 5.78L10 15.27 4.75 18l1-5.78-4.25-4.1 5.87-.85z" /></symbol><symbol viewBox="0 0 20 20" id="star-b"><path fill="currentColor" d="m10 2 2.63 5.27 5.87.85-4.25 4.1 1 5.78L10 15.27 4.75 18l1-5.78-4.25-4.1 5.87-.85L10 2z" /></symbol><symbol fill="none" viewBox="0 0 24 24" id="suitcase"><path stroke="currentColor" stroke-linecap="round" stroke-linejoin="round" stroke-width="1.2" d="M15 8V6a2 2 0 0 0-2-2h-2a2 2 0 0 0-2 2v2m6 0h4a2 2 0 0 1 2 2v8a2 2 0 0 1-2 2H7m8-12H9m0 0H7m0 0H5a2 2 0 0 0-2 2v8a2 2 0 0 0 2 2h2M7 8v12M17 8v12" /></symbol><symbol fill="none" viewBox="0 0 24 24" id="t-shirt"><path stroke="currentColor" stroke-linecap="round" stroke-linejoin="round" stroke-width="1.2" d="M3 10V5a1 1 0 0 1 1-1h4c0 1 .8 3 4 3s4-2 4-3h4a1 1 0 0 1 1 1v5a1 1 0 0 1-1 1h-1a1 1 0 0 0-1 1v7a1 1 0 0 1-1 1H7a1 1 0 0 1-1-1v-7a1 1 0 0 0-1-1H4a1 1 0 0 1-1-1z" /></symbol><symbol fill="none" viewBox="0 0 24 24" id="table-heart"><path stroke="currentColor" stroke-linecap="round" stroke-linejoin="round" stroke-width="1.2" d="M10 20H9M3 8V6a2 2 0 0 1 2-2h14a2 2 0 0 1 2 2v2M3 8v6m0-6h6m12 0v3m0-3H9m-6 6v4a2 2 0 0 0 2 2h4m-6-6h6m0-6v6m0 0v6m0-6h1m5-6v3m6 5c0 1.2-2.667 3.833-4 5-1.333-1.167-4-3.8-4-5 0-.667.4-2 2-2s2 1.333 2 2c0-.667.4-2 2-2s2 1.333 2 2z" /></symbol><symbol fill="none" viewBox="0 0 24 24" id="tag"><path stroke="currentColor" stroke-linecap="round" stroke-linejoin="round" stroke-width="1.2" d="M3 11.172V5a2 2 0 0 1 2-2h6.172a2 2 0 0 1 1.414.586l8 8a2 2 0 0 1 0 2.828l-6.172 6.172a2 2 0 0 1-2.828 0l-8-8A2 2 0 0 1 3 11.172zM7 7h.001" /></symbol><symbol fill="none" viewBox="0 0 24 24" id="tag-off"><path stroke="currentColor" stroke-linecap="round" stroke-linejoin="round" stroke-width="1.2" d="m14 5-1.414-1.414A2 2 0 0 0 11.172 3H5a2 2 0 0 0-2 2v6.172a2 2 0 0 0 .586 1.414L5 14m14-4 1.586 1.586a2 2 0 0 1 0 2.828l-6.172 6.172a2 2 0 0 1-2.828 0L10 19M7 7h.001M21 3 3 21" /></symbol><symbol fill="none" viewBox="0 0 24 24" id="telescope"><path stroke="currentColor" stroke-linecap="round" stroke-linejoin="round" stroke-width="1.2" d="m16.588 3 .5.866m3.5 6.062-.5-.866m-3-5.196-6.062 3.5a1 1 0 0 0-.366 1.366v0m6.428-4.866 3 5.196m0 0-6.062 3.5a1 1 0 0 1-1.366-.366v0m-2-3.464-5.196 3a1 1 0 0 0-.366 1.366v0m5.562-4.366 2 3.464m0 0-3.03 1.75m-4.532-.848-1.732 1A1 1 0 0 0 3 15.464v0a1 1 0 0 0 1.366.366l1.732-1m-1-1.732 1 1.732m0 0v0a1 1 0 0 0 1.366.366l2.165-1.25m0 0L13 20m-3.37-6.054L7.097 20" /></symbol><symbol fill="none" viewBox="0 0 24 24" id="textbox"><path stroke="currentColor" stroke-linecap="round" stroke-linejoin="round" stroke-width="1.2" d="M8 8h8m0 4H8m0 4h4m-6 4h12a2 2 0 0 0 2-2V6a2 2 0 0 0-2-2H6a2 2 0 0 0-2 2v12a2 2 0 0 0 2 2z" /></symbol><symbol fill="none" viewBox="0 0 24 24" id="textbox-plus"><path stroke="currentColor" stroke-linecap="round" stroke-linejoin="round" stroke-width="1.2" d="M8 8h8m0 4H8m0 4h4m8-4V6a2 2 0 0 0-2-2H6a2 2 0 0 0-2 2v12a2 2 0 0 0 2 2h6m6-5v3m0 3v-3m0 0h3m-3 0h-3" /></symbol><symbol fill="none" viewBox="0 0 24 24" id="ticket"><path stroke="currentColor" stroke-linecap="round" stroke-linejoin="round" stroke-width="1.2" d="M17 19H4a1 1 0 0 1-1-1V6a1 1 0 0 1 1-1h13m0 14h3a1 1 0 0 0 1-1V6a1 1 0 0 0-1-1h-3m0 14v-1m0-13v1m0 3.001V9m0 3.001V12m0 3.001V15" /></symbol><symbol fill="none" viewBox="0 0 24 24" id="ticket-check"><path stroke="currentColor" stroke-linecap="round" stroke-linejoin="round" stroke-width="1.2" d="M17 19H4a1 1 0 0 1-1-1V6a1 1 0 0 1 1-1h13m0 14h3a1 1 0 0 0 1-1V6a1 1 0 0 0-1-1h-3m0 14v-1m0-13v1m0 3.001V9m0 3.001V12m0 3.001V15" /><path stroke="currentColor" stroke-linecap="round" stroke-linejoin="round" stroke-width="1.2" d="m7 13 2 2 4-6" /></symbol><symbol fill="none" viewBox="0 0 24 24" id="ticket-text"><path stroke="currentColor" stroke-linecap="round" stroke-linejoin="round" stroke-width="1.2" d="M17 19H4a1 1 0 0 1-1-1V6a1 1 0 0 1 1-1h13m0 14h3a1 1 0 0 0 1-1V6a1 1 0 0 0-1-1h-3m0 14v-1m0-13v1m0 3.001V9m0 3.001V12m0 3.001V15M7 12h6m-6 3h3" /></symbol><symbol fill="none" viewBox="0 0 24 24" id="tickets"><path stroke="currentColor" stroke-linecap="round" stroke-linejoin="round" stroke-width="1.2" d="M17 16H8a1 1 0 0 1-1-1V6a1 1 0 0 1 1-1h9m0 11h3a1 1 0 0 0 1-1V6a1 1 0 0 0-1-1h-3m0 11v-1m0-10v1" /><path stroke="currentColor" stroke-linecap="round" stroke-linejoin="round" stroke-width="1.2" d="M13 20H4a1 1 0 0 1-1-1v-9a1 1 0 0 1 1-1h3m6 11h3a1 1 0 0 0 1-1v-2.5M13 20v-1m4-9.999V9m0 3.001V12" /></symbol><symbol fill="none" viewBox="0 0 24 24" id="timer"><path stroke="currentColor" stroke-linecap="round" stroke-linejoin="round" stroke-width="1.2" d="m19 7-1.343 1.343m0 0A8 8 0 1 0 6.343 19.657 8 8 0 0 0 17.657 8.343zM12 10v4M9 3h6" /></symbol><symbol fill="none" viewBox="0 0 24 24" id="tooltip"><path stroke="currentColor" stroke-linecap="round" stroke-linejoin="round" stroke-width="1.2" d="M19 4H5a2 2 0 0 0-2 2v10a2 2 0 0 0 2 2h3.172a2 2 0 0 1 1.414.586l1.707 1.707a1 1 0 0 0 1.414 0l1.707-1.707A2 2 0 0 1 15.828 18H19a2 2 0 0 0 2-2V6a2 2 0 0 0-2-2z" /></symbol><symbol fill="none" viewBox="0 0 24 24" id="tooltip-text"><path stroke="currentColor" stroke-linecap="round" stroke-linejoin="round" stroke-width="1.2" d="M7 8h10M7 11h10M7 14h4m1.707 6.293 1.707-1.707A2 2 0 0 1 15.828 18H19a2 2 0 0 0 2-2V6a2 2 0 0 0-2-2H5a2 2 0 0 0-2 2v10a2 2 0 0 0 2 2h3.172a2 2 0 0 1 1.414.586l1.707 1.707a1 1 0 0 0 1.414 0z" /></symbol><symbol fill="none" viewBox="0 0 24 24" id="tooltips"><path stroke="currentColor" stroke-linecap="round" stroke-linejoin="round" stroke-width="1.2" d="M12 2H4a2 2 0 0 0-2 2v6a2 2 0 0 0 2 2h.93a2 2 0 0 1 1.664.89l.574.862a1 1 0 0 0 1.664 0l.574-.861A2 2 0 0 1 11.07 12H12a2 2 0 0 0 2-2V4a2 2 0 0 0-2-2zm6 8h2a2 2 0 0 1 2 2v6a2 2 0 0 1-2 2h-.93a2 2 0 0 0-1.664.89l-.574.862a1 1 0 0 1-1.664 0l-.574-.861A2 2 0 0 0 12.93 20H12a2 2 0 0 1-2-2v-1" /></symbol><symbol fill="none" viewBox="0 0 24 24" id="tooltips-2"><path stroke="currentColor" stroke-linecap="round" stroke-linejoin="round" stroke-width="1.2" d="M20 10h-8a2 2 0 0 0-2 2v6a2 2 0 0 0 2 2h.93a2 2 0 0 1 1.664.89l.574.862a1 1 0 0 0 1.664 0l.574-.861A2 2 0 0 1 19.07 20H20a2 2 0 0 0 2-2v-6a2 2 0 0 0-2-2zm-6-3V4a2 2 0 0 0-2-2H4a2 2 0 0 0-2 2v6a2 2 0 0 0 2 2h.93a2 2 0 0 1 1.664.89L7 13.5" /></symbol><symbol viewBox="0 0 24 24" id="trash"><path fill="none" stroke="currentColor" stroke-linecap="round" stroke-linejoin="round" stroke-width="1.2" d="M4 7h16m-10 4v6m4-6v6M5 7l1 12a2 2 0 0 0 2 2h8a2 2 0 0 0 2-2l1-12M9 7V4a1 1 0 0 1 1-1h4a1 1 0 0 1 1 1v3" /></symbol><symbol fill="none" viewBox="0 0 24 24" id="umbrella"><path stroke="currentColor" stroke-linecap="round" stroke-linejoin="round" stroke-width="1.2" d="M12 4c-7.2 0-9 6-9 9h9m0-9c7.2 0 9 6 9 9h-9m0-9V3m0 10v5c0 1 .6 3 3 3s3-2 3-3" /></symbol><symbol fill="none" viewBox="0 0 24 24" id="undo"><path stroke="currentColor" stroke-linecap="round" stroke-linejoin="round" stroke-width="1.2" d="M4 9v5h5m11 2c-.497-4.5-3.367-8-8-8-2.73 0-5.929 2.268-7.294 5.5" /></symbol><symbol fill="none" viewBox="0 0 24 24" id="unlock-open"><path stroke="currentColor" stroke-linecap="round" stroke-linejoin="round" stroke-width="1.2" d="M8 10H6a2 2 0 0 0-2 2v7a2 2 0 0 0 2 2h12a2 2 0 0 0 2-2v-7a2 2 0 0 0-2-2H8zm0 0V7c0-1.333.8-4 4-4 1.904 0 2.958.944 3.5 1.99M12 14v3" /></symbol><symbol fill="none" viewBox="0 0 24 24" id="user"><circle cx="12" cy="8" r="5" stroke="currentColor" stroke-linecap="round" stroke-linejoin="round" stroke-width="1.2" /><path stroke="currentColor" stroke-linecap="round" stroke-linejoin="round" stroke-width="1.2" d="M20 21a8 8 0 1 0-16 0m16 0a8 8 0 1 0-16 0" /></symbol><symbol fill="none" viewBox="0 0 24 24" id="user-box"><circle cx="12" cy="10" r="3" stroke="currentColor" stroke-linecap="round" stroke-linejoin="round" stroke-width="1.2" /><path stroke="currentColor" stroke-linecap="round" stroke-linejoin="round" stroke-width="1.2" d="M17 17c0-2.21-2.239-4-5-4s-5 1.79-5 4" /><rect width="18" height="18" x="3" y="3" stroke="currentColor" stroke-linecap="round" stroke-linejoin="round" stroke-width="1.2" rx="3" /></symbol><symbol fill="none" viewBox="0 0 24 24" id="users"><circle cx="9" cy="9" r="4" stroke="currentColor" stroke-linecap="round" stroke-linejoin="round" stroke-width="1.2" /><path stroke="currentColor" stroke-linecap="round" stroke-linejoin="round" stroke-width="1.2" d="M16 19c0-3.314-3.134-6-7-6s-7 2.686-7 6m13-6a4 4 0 1 0-3-6.646" /><path stroke="currentColor" stroke-linecap="round" stroke-linejoin="round" stroke-width="1.2" d="M22 19c0-3.314-3.134-6-7-6-.807 0-2.103-.293-3-1.235" /></symbol><symbol fill="none" viewBox="0 0 24 24" id="video"><path stroke="currentColor" stroke-linecap="round" stroke-linejoin="round" stroke-width="1.2" d="M17 12V8a2 2 0 0 0-2-2H5a2 2 0 0 0-2 2v8a2 2 0 0 0 2 2h10a2 2 0 0 0 2-2v-4zm0 0 4-4v8l-4-4z" /></symbol><symbol fill="none" viewBox="0 0 24 24" id="watch"><path stroke="currentColor" stroke-linecap="round" stroke-linejoin="round" stroke-width="1.2" d="M12 9v3l2 1m4-1a6 6 0 1 1-12 0 6 6 0 0 1 12 0z" /><path stroke="currentColor" stroke-linecap="round" stroke-linejoin="round" stroke-width="1.2" d="M15 6.5V3a1 1 0 0 0-1-1h-4a1 1 0 0 0-1 1v3.5m6 11V21a1 1 0 0 1-1 1h-4a1 1 0 0 1-1-1v-3.5" /></symbol></defs></svg>