<svg width="20" height="20" viewBox="0 0 20 20" xmlns="http://www.w3.org/2000/svg"><path d="M10,0a9.77,9.77,0,0,1,3.88.79,9.83,9.83,0,0,1,5.32,5.32,9.92,9.92,0,0,1,0,7.76,10,10,0,0,1-2.13,3.19,10.12,10.12,0,0,1-3.19,2.14,9.94,9.94,0,0,1-7.79,0,9.93,9.93,0,0,1-3.19-2.14A10.18,10.18,0,0,1,.79,13.88a9.9,9.9,0,0,1,0-7.76A9.83,9.83,0,0,1,6.12.79,9.77,9.77,0,0,1,10,0Zm6.91,15.08A8.44,8.44,0,0,0,18.57,10a8.34,8.34,0,0,0-.68-3.33,8.47,8.47,0,0,0-4.57-4.57,8.47,8.47,0,0,0-6.65,0A8.47,8.47,0,0,0,2.11,6.67,8.34,8.34,0,0,0,1.43,10a8.44,8.44,0,0,0,1.66,5.08q.74-3.65,3.42-3.65A4.82,4.82,0,0,0,10,12.86a4.82,4.82,0,0,0,3.49-1.43Q16.17,11.43,16.91,15.08ZM14.29,7.86a4.13,4.13,0,0,0-1.26-3,4.13,4.13,0,0,0-3-1.26A4.13,4.13,0,0,0,7,4.83a4.13,4.13,0,0,0-1.26,3,4.13,4.13,0,0,0,1.26,3,4.13,4.13,0,0,0,3,1.26,4.13,4.13,0,0,0,3-1.26A4.13,4.13,0,0,0,14.29,7.86Z" fill="currentColor"/></svg>